<?xml version="1.0" encoding="utf-8"?>
<!-- Generator: Adobe Illustrator 23.1.0, SVG Export Plug-In . SVG Version: 6.00 Build 0)  -->
<svg version="1.1" id="Layer_1" xmlns="http://www.w3.org/2000/svg" xmlns:xlink="http://www.w3.org/1999/xlink" x="0px" y="0px"
	 viewBox="0 0 65 65" style="enable-background:new 0 0 65 65;" xml:space="preserve">
<style type="text/css">
	.st0{fill:none;stroke:#FFFFFF;stroke-miterlimit:10;}
</style>
<g>
	<path class="st0" d="M29.3,30.8c-1.4-2.5-4.8-0.7-4.9-0.8c-2.7,3.1-8,0.9-8,0.9c-0.3,2.2,0.4,4.3,0.3,4.3c3.2,5.5,8.1,3.7,8.2,3.7
		C30.3,36.6,29.4,30.9,29.3,30.8z"/>
	<path class="st0" d="M31.3,32.4c0-4.7-3.8-8.5-8.5-8.5s-8.5,3.8-8.5,8.5s3.8,8.5,8.5,8.5S31.3,37,31.3,32.4z M24.9,38.8
		c-0.1,0-4.9,1.9-8.2-3.7c0.1,0-0.6-2-0.3-4.3c0,0,5.3,2.2,8-0.9c0.2,0.1,3.5-1.7,4.9,0.8C29.4,30.9,30.3,36.6,24.9,38.8z"/>
	<path class="st0" d="M8.5,47.4c-0.1,0-1.4,3.4-1,7.7h11.1L15.2,44C15.2,44,11.3,43.7,8.5,47.4z"/>
	<path class="st0" d="M37,47.4c-2.8-3.7-6.7-3.4-6.7-3.4L27,55.1h11C38.4,50.8,37.1,47.4,37,47.4z"/>
	<polygon class="st0" points="22.6,55.1 25.5,55.1 25,53.5 	"/>
	<polygon class="st0" points="24.4,50.3 20.7,52.9 20.1,55.3 20.7,55.3 24.8,52.3 	"/>
	<polygon class="st0" points="24,44 21.5,44 20.8,46.1 22.1,47.4 21.1,51.2 24,49.2 23.6,47.4 24.8,46 	"/>
	<path class="st0" d="M38.1,35.7h-3.2c-0.2,0-0.4,0.2-0.4,0.4v3.2c0,0.2,0.2,0.4,0.4,0.4h3.2c0.2,0,0.4-0.2,0.4-0.4v-3.2
		C38.5,35.9,38.3,35.7,38.1,35.7z"/>
	<path class="st0" d="M40.7,33.6c-0.2,0-0.4,0.2-0.4,0.4v5.4c0,0.2,0.2,0.4,0.4,0.4H44c0.2,0,0.4-0.2,0.4-0.4V34
		c0-0.2-0.2-0.4-0.4-0.4H40.7z"/>
	<path class="st0" d="M46.7,30.6c-0.2,0-0.4,0.2-0.4,0.4v8.3c0,0.2,0.2,0.4,0.4,0.4h3.2c0.2,0,0.4-0.2,0.4-0.4V31
		c0-0.2-0.2-0.4-0.4-0.4H46.7z"/>
	<path class="st0" d="M52.9,27c-0.2,0-0.4,0.2-0.4,0.4v11.9c0,0.2,0.2,0.4,0.4,0.4h3.2c0.2,0,0.4-0.2,0.4-0.4V27.4
		c0-0.2-0.2-0.4-0.4-0.4H52.9z"/>
	<path class="st0" d="M62.2,9.7H2.8c-0.8,0-1.5,0.7-1.5,1.5v37.6c0,0.8,0.7,1.5,1.5,1.5h2.5v-2.9H4.2V12.6h56.7v34.9H40.3v2.9h21.9
		c0.8,0,1.5-0.7,1.5-1.5V11.2C63.7,10.4,63,9.7,62.2,9.7z"/>
	<path class="st0" d="M35.4,32.7c-0.4,0.2,0,0.4,0,0.4c3.6-0.4,7-1.8,7-1.8c9.9-3.9,12.1-8.1,12.1-8.1l2.5,1l-1.7-6.5l-7.1,2.6
		c0,0,2.1,1.1,2.2,1.1C46.1,28.2,35.4,32.7,35.4,32.7z"/>
</g>
</svg>
