<?xml version="1.0" encoding="utf-8"?>
<!-- Generator: Adobe Illustrator 23.1.0, SVG Export Plug-In . SVG Version: 6.00 Build 0)  -->
<svg version="1.1" id="Layer_1" xmlns="http://www.w3.org/2000/svg" xmlns:xlink="http://www.w3.org/1999/xlink" x="0px" y="0px"
	 viewBox="0 0 65 65" style="enable-background:new 0 0 65 65;" xml:space="preserve">
<style type="text/css">
	.st0{fill:#FFFFFF;}
</style>
<g id="Layer_2_2_">
	<g id="Layer_1-2_1_">
		<path class="st0" d="M59,63.3c-0.1,0-0.2,0-0.2,0H5.8c-0.9,0-1.6-0.3-2.2-0.9c-1-1.1-0.9-2.6-0.9-2.9V44.2c0-2.2,1.6-3.2,2.5-3.4
			l0.1,0h17.5v1.5H5.6c-0.3,0.1-1.3,0.5-1.3,2v15.4v0c0,0.3,0,1.3,0.5,1.9c0.3,0.3,0.6,0.4,1.1,0.4h52.9h0c0,0,0.7,0.1,1.3-0.4
			c0.4-0.4,0.7-1.1,0.7-2V43.7c0-0.3-0.4-1.5-2.4-1.5H41.9v-1.5h16.5c2.8,0,3.7,1.9,3.8,2.9v0.1v15.7c0,1.4-0.4,2.5-1.2,3.2
			C60.5,63,59.7,63.3,59,63.3z"/>
		<path class="st0" d="M29.9,42.9h5c0.7,0,1.3,0.6,1.3,1.3l0,0c0,0.7-0.6,1.3-1.3,1.3h-5c-0.7,0-1.3-0.6-1.3-1.3l0,0
			C28.6,43.4,29.2,42.9,29.9,42.9z"/>
		<path class="st0" d="M27.4,39.5h10.1c0.7,0,1.3,0.6,1.3,1.3l0,0c0,0.7-0.6,1.3-1.3,1.3H27.4c-0.7,0-1.3-0.6-1.3-1.3l0,0
			C26.1,40.1,26.7,39.5,27.4,39.5z"/>
		<path class="st0" d="M27.4,36.1h10.1c0.7,0,1.3,0.6,1.3,1.3l0,0c0,0.7-0.6,1.3-1.3,1.3H27.4c-0.7,0-1.3-0.6-1.3-1.3l0,0
			C26.1,36.7,26.7,36.1,27.4,36.1z"/>
		<path class="st0" d="M37,35.8h-9.2c-0.2,0-1.2,0-1.9-0.7c-0.4-0.3-0.8-1-0.8-2.1v0c0,0,0.1-3.8-2.4-6.3c-0.2-0.2-1.8-1.8-3-4.4
			c-1.2-2.6-2.2-6.7-0.5-11.7l0-0.1c1-2.1,2.4-4,4.1-5.5c2.6-2.3,7.1-4.5,13.7-2.3c0.1,0,2.6,0.9,5,3.1c2.3,2,4.8,5.7,4.4,11.5
			c0,0.3-0.4,5.3-4.9,9.7c-0.2,0.3-2,2.6-2.2,6c0,0.3,0,1.4-0.7,2.1C38.3,35.5,37.7,35.8,37,35.8z M27.8,33.9L27.8,33.9H37
			c0.2,0,0.3-0.1,0.3-0.1c0.2-0.2,0.2-0.6,0.2-0.8v-0.1v0c0.2-4.3,2.6-7.1,2.7-7.2l0.1-0.1c4.1-3.9,4.4-8.5,4.4-8.6v0
			c0.3-4.1-1-7.4-3.8-10c-1.3-1.2-2.8-2.1-4.4-2.7c-4.6-1.5-8.6-0.9-11.9,2c-1.5,1.3-2.8,3-3.6,4.8c-1.2,3.5-1.1,7,0.4,10.2
			c1.1,2.5,2.6,3.9,2.7,3.9l0,0c3,3.1,3,7.3,3,7.7c0,0.3,0.1,0.6,0.2,0.7C27.4,33.9,27.8,33.9,27.8,33.9L27.8,33.9L27.8,33.9
			L27.8,33.9z"/>
		<path class="st0" d="M19.4,23.2L19.4,23.2c0.3,0.6,0.1,1.3-0.4,1.6l0,0l-4.7,2.7c-0.6,0.3-1.3,0.1-1.6-0.4l0,0l0,0
			c-0.3-0.6-0.1-1.3,0.4-1.6l4.7-2.7C18.4,22.4,19.1,22.6,19.4,23.2L19.4,23.2z"/>
		<path class="st0" d="M9.9,16.3L9.9,16.3c0-0.6,0.5-1.2,1.2-1.2h5.5c0.6,0,1.2,0.5,1.2,1.2l0,0c0,0.6-0.5,1.2-1.2,1.2H11
			C10.4,17.4,9.9,16.9,9.9,16.3z"/>
		<path class="st0" d="M19.4,9.1L19.4,9.1c-0.3,0.6-1,0.7-1.6,0.4l0,0l-4.7-2.7c-0.6-0.3-0.7-1-0.4-1.6l0,0c0.3-0.6,1-0.7,1.6-0.4
			l0,0L19,7.5C19.6,7.8,19.8,8.5,19.4,9.1L19.4,9.1z"/>
		<path class="st0" d="M45.1,23.2L45.1,23.2c-0.3,0.6-0.1,1.3,0.4,1.6l4.7,2.7c0.6,0.3,1.3,0.1,1.6-0.4l0,0l0,0
			c0.3-0.6,0.1-1.3-0.4-1.6l0,0l-4.7-2.7C46.1,22.4,45.4,22.6,45.1,23.2L45.1,23.2z"/>
		<path class="st0" d="M46.9,16.3L46.9,16.3c0-0.6,0.5-1.2,1.2-1.2h5.5c0.6,0,1.2,0.5,1.2,1.2l0,0c0,0.6-0.5,1.2-1.2,1.2h-5.5
			C47.4,17.4,46.9,16.9,46.9,16.3z"/>
		<path class="st0" d="M45.1,9.1L45.1,9.1c0.3,0.6,1,0.7,1.6,0.4l0,0l4.7-2.7c0.6-0.3,0.7-1,0.4-1.6l0,0c-0.3-0.6-1-0.7-1.6-0.4l0,0
			l-4.7,2.7C45,7.8,44.8,8.5,45.1,9.1z"/>
		<path class="st0" d="M34.6,34.8V23.7h3c0,0,3.5-0.4,2.6-4.8c0,0-1.3-2.7-4.4-1.9c0,0-1.8,0.8-2.2,2.3v3.2h-2.4v-3.3
			c0,0-2.2-3.8-5.6-1.3c0,0-2,2-0.3,4.8c0,0,1.1,1,1.7,1.1h3.1l0.2,11.2"/>
		<path class="st0" d="M30.1,22.4v-2.9c0,0-2.5-2.7-3.9-0.4c0,0-1.3,2.5,1,3.4H30.1z"/>
		<path class="st0" d="M34.6,22.4v-2.9c0,0,2.3-3.1,4.2-0.4c0,0,1.3,2.5-1,3.4H34.6z"/>
		<rect x="31.2" y="23.5" class="st0" width="2.4" height="10.4"/>
	</g>
</g>
</svg>
