<?xml version="1.0" encoding="utf-8"?>
<!-- Generator: Adobe Illustrator 24.0.2, SVG Export Plug-In . SVG Version: 6.00 Build 0)  -->
<svg version="1.1" id="Layer_1" xmlns="http://www.w3.org/2000/svg" xmlns:xlink="http://www.w3.org/1999/xlink" x="0px" y="0px"
	 viewBox="0 0 515.5 391.1" style="enable-background:new 0 0 515.5 391.1;" xml:space="preserve">
<style type="text/css">
	.st0{fill:#FFFFFF;}
</style>
<g id="Layer_2_1_">
	<g id="Layer_1-2">
		<path class="st0" d="M81.6,311.1c-16.8,0-30.4-13.6-30.4-30.4c0-16.8,13.6-30.4,30.4-30.4c16.8,0,30.4,13.6,30.4,30.4
			C112,297.5,98.4,311.1,81.6,311.1z M81.6,260.8c-11,0-19.9,8.9-19.9,19.9c0,11,8.9,19.9,19.9,19.9s19.9-8.9,19.9-19.9
			C101.5,269.7,92.6,260.8,81.6,260.8z"/>
		<polygon class="st0" points="10.4,386.6 0,386.6 0,311.6 32.2,279.9 39.5,287.3 10.4,316 		"/>
		<path class="st0" d="M267,238.7c-23.3,0-47.3-12.5-71.7-37.3l-0.5-0.6l-0.4-0.7c-1.4-2.6-34-65.4-28.9-134.8
			c-0.4-4.1-1.9-28.6,14.1-46.6C190.7,6.3,207.3,0,229,0h132.4v151l-0.3,0.9c-1.1,3-28.6,74.4-80.6,85.4
			C276,238.2,271.5,238.7,267,238.7z M203.3,194.6c26.3,26.5,51.5,37.4,75,32.5c43.6-9.2,69.5-70.1,72.7-78V10.4H229
			c-18.6,0-32.5,5.1-41.5,15.2c-14,15.7-11.6,38.8-11.6,39l0.1,0.5v0.5C171.1,128.5,199.9,187.7,203.3,194.6L203.3,194.6z"/>
		<path class="st0" d="M209.3,109.1l-10-3c5.1-14.3,16.1-25.7,30.1-31.5c24.4-10.1,57.2-4.1,97.5,17.8l-5,9.2
			c-36.7-20-67.2-26-88.3-17.4C222.4,88.7,213.5,97.8,209.3,109.1z"/>
		<path class="st0" d="M263.1,287.1l-50.8-37.3v-47.5l8.8,8c17.1,15.7,36.6,20.5,57.9,14.4c10.1-3,19.6-7.9,27.9-14.5l8.6-7.4v47.3
			L263.1,287.1z M222.8,244.5l40.5,29.8l41.8-29.5v-20.4c-7.1,4.5-14.8,7.9-22.8,10.3c-15.3,4.5-37.3,6-59.5-9.6L222.8,244.5z"/>
		<rect x="258" y="280.7" class="st0" width="10.5" height="106"/>
		<path class="st0" d="M405.1,377.4h-10.4v-76.8L316.8,264c0.5,14.9-3.1,26-10.7,33c-10.3,9.5-24.2,7.9-27.2,7.4h-32
			c-12.4,3-22.1,1.2-28.8-5.3c-8.8-8.5-9.7-23.2-9-33.3l-79.4,46.3v65.3h-10.5v-71.2l104-60.6l-2.5,11.6c-1.5,6.9-3.6,26.6,4.7,34.5
			c4,3.9,10.6,4.8,19.6,2.5l0.6-0.2h34.3l0.5,0.1c0.1,0,11.3,2.1,18.7-4.8c6.3-5.9,8.6-17.4,6.6-33.2l-1.2-9.4l100.6,47.2V377.4z"/>
		<rect x="351" y="337.2" class="st0" width="10.5" height="53.9"/>
		<rect x="169.1" y="337.2" class="st0" width="10.4" height="53.9"/>
		<rect x="38.4" y="337.2" class="st0" width="10.5" height="53.9"/>
		<path class="st0" d="M426.8,306.5c-2,0-9.6-0.5-16.8-7.3c-8.5-8.1-12.8-21.6-12.8-40.3v-5.2h59.5v5.2c0,1.9-0.3,47.5-29.6,47.6
			H426.8z M407.8,264.1c0.7,12.8,3.9,22.2,9.4,27.5c4.7,4.5,9.5,4.4,9.5,4.4h0.3c14.4,0,18-21.7,19-31.9H407.8z"/>
		<path class="st0" d="M422.7,264.4c-6,0-11.8-1.3-17.3-3.7c-10.8-4.7-25.6-16.4-34.4-45c-3.5-12.1-5.2-24.6-4.9-37.2
			c1-26.9,12.9-45.2,34.6-52.8l0.8-0.3h91.8v56.2c0.3,3.6,2.4,38.4-18.3,61.9c-11.4,12.9-27.4,19.8-47.5,20.6
			C426,264.3,424.3,264.4,422.7,264.4z M403.4,135.8c-41.4,15.4-22.6,76.2-22.4,76.8l0,0c14.2,46.3,43.7,41.3,45,41.1l0.4-0.1h0.4
			c17.3-0.6,30.9-6.4,40.4-17.1c18.5-20.9,15.8-53.9,15.8-54.2v-0.5v-46L403.4,135.8z"/>
		<path class="st0" d="M515.5,391.1H505v-84c-2.2-4-14.4-21.8-56.5-21.8v-10.4c54.1,0,66.1,27.9,66.6,29.1l0.4,1L515.5,391.1z"/>
		<rect x="421.8" y="301.2" class="st0" width="10.5" height="89.8"/>
		<rect x="466.2" y="319.8" class="st0" width="10.5" height="71.3"/>
		<path class="st0" d="M458.7,191c-22.2-19.4-67.5-18.6-68-18.6l-0.3-10.4c2-0.1,49.8-1,75.1,21.1L458.7,191z"/>
		<path class="st0" d="M78.3,311.8c-0.9,0-1.7,0-2.6-0.1c-14.9-1-28-10-38.9-26.8c-6.8-2.8-28.9-13-32.7-29.9
			c-1.8-8,0.8-15.9,7.7-23.6c-0.2-12.3,0.3-70.5,28.6-100.1C51.4,120,65,114.2,81.1,114.1c3.7-0.6,23.5-2.9,42.8,12.9
			c24.5,20,37.1,59.6,37.5,117.5c4.7,3.4,9.6,9.4,6.7,16.6l-0.2,0.4c-9.4,18.7-33.4,23.2-40.9,24.2
			C121.6,291.7,101.8,311.8,78.3,311.8z M81.6,124.6c-13.5,0-24.5,4.6-33.6,14.1c-28.1,29.3-25.7,94-25.7,94.6l0.1,2.3l-1.6,1.6
			c-5.5,5.6-7.6,10.7-6.5,15.7c2.5,11.3,20.9,20.4,27.8,23l1.7,0.6l0.9,1.5c9.2,14.8,19.9,22.6,31.6,23.4
			c22.9,1.5,43.8-23.7,44-23.9l1.4-1.7l2.2-0.2c0.3,0,26.1-2.1,34.4-18.4c0.3-1.4-2.9-4.1-4.7-5.1l-2.7-1.5v-3.1
			c0-70.1-18.3-99.8-33.7-112.3c-17.1-14-34.5-10.7-34.7-10.6l-0.5,0.1L81.6,124.6z"/>
		<rect x="119.2" y="280.7" class="st0" width="10.4" height="110.4"/>
	</g>
</g>
</svg>
