<?xml version="1.0" encoding="utf-8"?>
<!-- Generator: Adobe Illustrator 23.1.0, SVG Export Plug-In . SVG Version: 6.00 Build 0)  -->
<svg version="1.1" id="Layer_1" xmlns="http://www.w3.org/2000/svg" xmlns:xlink="http://www.w3.org/1999/xlink" x="0px" y="0px"
	 viewBox="0 0 65 65" style="enable-background:new 0 0 65 65;" xml:space="preserve">
<style type="text/css">
	.st0{fill:#FFFFFF;}
</style>
<g id="Layer_2_1_">
	<g id="Layer_1-2">
		<path class="st0" d="M45.7,61.7H3V19L45.7,61.7z M4.4,60.3h38l-38-38V60.3z"/>
		<path class="st0" d="M25.4,53.8H11V39.4L25.4,53.8z M12.1,52.6h10.4L12.1,42.2V52.6z"/>
		<path class="st0" d="M62,61.7H43.8l-0.2-0.2L17.4,35.3v-32h34.2L62,13.8V61.7z M44.3,60.3h16.3V14.4L51,4.7H18.7v30L44.3,60.3z"/>
		
			<rect x="8.5" y="29.7" transform="matrix(0.7071 -0.7071 0.7071 0.7071 -18.6977 16.6555)" class="st0" width="4.5" height="2.4"/>
		
			<rect x="12.5" y="33.7" transform="matrix(0.7071 -0.7071 0.7071 0.7071 -20.3456 20.6377)" class="st0" width="4.5" height="2.4"/>
		
			<rect x="16.4" y="37.7" transform="matrix(0.7071 -0.7071 0.7071 0.7071 -21.9912 24.5919)" class="st0" width="4.5" height="2.4"/>
		
			<rect x="20.1" y="41.4" transform="matrix(0.7071 -0.7071 0.7071 0.7071 -23.5231 28.2995)" class="st0" width="4.5" height="2.4"/>
		
			<rect x="24.4" y="45.6" transform="matrix(0.7071 -0.7071 0.7071 0.7071 -25.2766 32.5203)" class="st0" width="4.5" height="2.4"/>
		
			<rect x="28.1" y="49.3" transform="matrix(0.7071 -0.7071 0.7071 0.7071 -26.8293 36.2717)" class="st0" width="4.5" height="2.4"/>
		
			<rect x="32.3" y="53.6" transform="matrix(0.7071 -0.7071 0.7071 0.7071 -28.5723 40.4843)" class="st0" width="4.5" height="2.4"/>
		<rect x="48.2" y="56.3" class="st0" width="2.5" height="2.1"/>
		<rect x="52.3" y="56.3" class="st0" width="2.5" height="2.1"/>
		<rect x="56.4" y="56.3" class="st0" width="2.5" height="2.1"/>
		<path class="st0" d="M44,40.9c-3.3,0-6-2.7-6-6s2.7-6,6-6c3.3,0,6,2.7,6,6C50,38.2,47.4,40.9,44,40.9z M44,29.8
			c-2.8,0-5.1,2.3-5.1,5.1c0,2.8,2.3,5.1,5.1,5.1s5.1-2.3,5.1-5.1C49.1,32.1,46.8,29.8,44,29.8L44,29.8z"/>
		<path class="st0" d="M46.9,48.8h-7.7V44l-2.2,3.5l-5.8-6.7l3.1-1.5H30v-8.8h4.8l-3.4-2.2l4.8-5.4l3.1,2.1v-4.8h9.4v4.3l2-2.5
			l6.4,6l-3.4,2.4h4.4v8.8L52,38.6l4.4,4l-5.7,4.8l-3-3.8L46.9,48.8z M40.1,47.9h6.1l0.9-6.4l3.7,4.7l4.3-3.6l-5.7-5.2l7.8,1v-7H51
			l4.7-3.4l-5-4.7l-3,3.7v-5.9h-7.7v5.6L36.3,24l-3.6,4.1l5,3.2h-6.8v7.1H38l-5.3,2.7l4.3,5l3.1-5L40.1,47.9L40.1,47.9z"/>
		<path class="st0" d="M35.9,17.8H3.1V8.2H36l8.4,5L35.9,17.8z M4.3,16.7h31.3l6.5-3.5l-6.4-3.8H4.3V16.7z"/>
		<path class="st0" d="M12.3,17.8H3.1V8.2h9.1V17.8z M4.3,16.7h6.9V9.4H4.3V16.7z"/>
		<path class="st0" d="M62,14.8H50.4V3.3L62,14.8z M51.2,14h8.7l-8.7-8.6V14z"/>
	</g>
</g>
</svg>
