<?xml version="1.0" encoding="UTF-8"?>
<!DOCTYPE svg PUBLIC "-//W3C//DTD SVG 1.1//EN" "http://www.w3.org/Graphics/SVG/1.1/DTD/svg11.dtd">
<!-- Creator: CorelDRAW 2021 (64-Bit) -->
<svg xmlns="http://www.w3.org/2000/svg" xml:space="preserve" width="87.63mm" height="95.5428mm" version="1.1" style="shape-rendering:geometricPrecision; text-rendering:geometricPrecision; image-rendering:optimizeQuality; fill-rule:evenodd; clip-rule:evenodd"
viewBox="0 0 2412.66 2630.51"
 xmlns:xlink="http://www.w3.org/1999/xlink"
 xmlns:xodm="http://www.corel.com/coreldraw/odm/2003">
 <defs>
  <style type="text/css">
   <![CDATA[
    .fil0 {fill:#1D1D1B;fill-rule:nonzero}
   ]]>
  </style>
 </defs>
 <g id="Layer_x0020_1">
  <metadata id="CorelCorpID_0Corel-Layer"/>
  <g id="_1635124826240">
   <g>
    <path class="fil0" d="M0 172.07c59.18,-10.45 116.63,-20.89 175.81,-29.59 6.96,-1.74 15.67,5.22 20.89,12.19 69.63,73.11 139.26,147.96 208.89,222.81 10.44,8.7 19.15,12.19 33.07,10.45 309.85,-53.96 619.7,-107.93 929.55,-158.41 125.33,-20.89 252.41,-38.3 379.48,-52.22 47,-5.22 97.48,3.48 144.48,5.22 0,1.74 0,5.22 0,6.96 -15.67,5.22 -31.33,6.96 -45.26,13.93 -64.41,27.85 -97.48,94 -81.82,165.37 13.93,64.41 74.85,109.67 142.74,106.18 22.63,-1.74 45.26,-5.22 67.89,-8.7 83.56,-13.93 168.85,-27.85 252.41,-41.78 8.7,-1.74 15.67,-3.48 24.37,-3.48 8.71,66.15 -38.29,135.78 -102.7,158.41 -10.45,3.48 -22.63,6.96 -34.81,8.71 -215.85,36.55 -431.7,73.11 -647.55,107.92 -1.74,0 -5.22,0 -12.19,0 8.7,-13.93 15.67,-24.37 24.37,-34.81 6.96,-10.44 15.67,-22.63 22.63,-33.07 12.18,-17.41 13.93,-34.81 1.74,-53.96 -10.45,-19.15 -27.85,-22.63 -47,-20.89 -66.15,8.7 -132.3,19.15 -198.44,29.59 -100.96,17.41 -201.93,36.55 -302.89,52.22 -27.85,5.22 -45.26,17.41 -57.44,43.52 -15.67,34.81 -31.33,71.37 -47,106.18 -3.48,6.96 -10.45,15.67 -17.41,17.41 -87.04,13.93 -175.81,33.07 -264.59,41.78 -158.4,15.67 -308.11,-73.11 -372.51,-219.33 -67.89,-146.22 -130.56,-295.93 -194.96,-443.89 -1.74,-1.74 -1.74,-3.48 -1.74,-8.7zm776.36 330.74c-1.74,-13.93 -3.48,-22.63 -6.96,-31.33 -6.96,-24.37 -29.59,-38.3 -52.22,-34.81 -24.37,3.48 -41.78,24.37 -40.04,50.48 1.74,20.89 6.96,41.78 12.19,62.67 6.96,20.89 27.85,31.33 50.48,27.85 22.63,-5.22 38.29,-20.89 38.29,-43.52 1.74,-12.19 0,-22.63 -1.74,-31.33zm562.26 -97.48c-1.74,-10.44 -3.48,-20.89 -8.7,-31.33 -8.7,-22.63 -31.33,-34.81 -53.96,-29.59 -20.89,5.22 -38.29,22.63 -36.55,47 1.74,20.89 5.22,43.52 10.44,62.67 6.96,22.63 27.85,33.07 50.48,29.59 24.37,-3.48 40.03,-20.89 40.03,-45.26 1.74,-12.19 0,-22.63 -1.74,-33.07zm-752 125.33c-1.74,-8.7 -1.74,-19.15 -3.48,-27.85 -6.96,-22.63 -29.59,-38.29 -53.96,-34.81 -24.37,3.48 -41.78,26.11 -38.3,52.22 1.74,17.41 5.22,34.81 8.7,52.22 5.22,24.37 26.11,38.3 50.48,36.56 24.37,-3.48 43.52,-24.37 41.78,-48.74 0,-10.45 -3.48,-19.15 -5.22,-29.59zm376 -60.93c-1.74,-8.7 -1.74,-19.15 -5.22,-27.85 -6.96,-24.37 -27.85,-38.29 -52.22,-34.81 -24.37,1.74 -41.78,22.63 -40.04,47 1.74,19.15 5.22,40.04 10.44,59.19 6.96,24.37 29.59,36.55 53.96,33.07 24.37,-5.22 40.04,-24.37 38.3,-50.48 -1.74,-8.7 -3.48,-17.41 -5.22,-26.11zm94 -19.15c1.74,8.7 1.74,19.15 5.22,27.85 6.96,24.37 26.11,38.29 50.48,34.81 24.37,-3.48 43.52,-24.37 41.78,-48.74 -1.74,-19.15 -5.22,-38.3 -10.44,-57.45 -6.96,-24.37 -29.59,-38.29 -53.96,-33.07 -24.37,3.48 -40.04,26.11 -38.29,52.22 1.74,6.96 3.48,15.67 5.22,24.37zm468.26 -76.59c0,0 0,0 0,0 -1.74,-8.71 -1.74,-17.41 -5.22,-26.11 -6.96,-24.37 -27.85,-40.04 -52.22,-36.55 -24.37,3.48 -41.78,26.11 -40.04,50.48 1.74,19.15 5.22,36.55 8.7,55.7 6.96,24.37 29.59,38.29 55.7,33.07 24.37,-5.22 40.04,-24.37 36.55,-50.48 0,-8.7 -1.74,-17.41 -3.48,-26.11z"/>
    <path class="fil0" d="M1361.25 666.43c-6.96,10.44 -10.44,15.67 -13.93,22.63 -120.11,168.85 -241.96,337.7 -362.07,508.29 -8.7,13.93 -19.15,19.15 -36.55,22.63 -64.41,10.45 -128.82,20.89 -196.7,33.07 3.48,-8.7 5.22,-15.67 8.7,-22.63 73.11,-160.15 146.22,-322.03 219.33,-482.18 3.48,-8.71 12.19,-17.41 20.89,-19.15 116.63,-22.63 235,-41.78 360.33,-62.67z"/>
    <path class="fil0" d="M1093.18 227.77c-10.45,1.74 -17.41,3.48 -24.37,5.22 -88.78,15.67 -179.3,29.59 -268.07,45.26 -15.67,3.48 -24.37,0 -34.81,-12.19 -67.89,-71.37 -134.04,-144.48 -201.92,-215.85 -5.22,-5.22 -8.71,-10.44 -17.41,-19.15 48.74,-8.7 95.74,-12.18 139.26,-24.37 57.44,-15.67 102.7,-3.48 147.96,33.07 76.59,60.92 158.41,113.15 236.74,170.59 6.96,5.22 13.93,10.45 22.63,17.41z"/>
    <path class="fil0" d="M2221.17 328.73c-41.78,6.96 -76.59,12.19 -113.15,19.15 -64.41,10.44 -128.82,20.89 -193.22,33.07 -22.63,3.48 -40.04,-3.48 -50.48,-22.63 -10.45,-17.41 -8.71,-36.55 3.48,-52.22 6.96,-8.7 19.15,-15.67 29.59,-17.41 66.15,-12.18 132.3,-22.63 200.18,-34.81 3.48,0 8.7,0 12.19,0 41.78,15.67 76.59,40.04 111.41,74.85z"/>
    <path class="fil0" d="M1188.92 1078.99c47,-66.15 92.26,-130.56 139.26,-194.96 36.55,17.41 55.7,52.22 52.22,94 -3.48,40.03 -31.33,73.11 -71.37,81.81 -40.04,6.96 -80.07,13.93 -120.11,19.15z"/>
   </g>
   <g>
    <path class="fil0" d="M2409.17 2535.98c-6.96,5.22 -13.93,12.19 -22.63,17.41 -45.26,22.63 -90.52,47 -135.78,69.63 -29.59,15.67 -43.52,6.96 -43.52,-27.85 0,-50.48 0,-99.22 0,-149.7 0,-13.93 -5.22,-20.89 -17.41,-27.85 -74.85,-38.3 -74.85,-38.3 -147.96,1.74 -10.44,5.22 -13.93,12.19 -13.93,24.37 0,50.48 0,100.96 0,151.44 0,31.33 -13.93,41.78 -41.78,26.11 -36.55,-17.41 -71.37,-36.55 -107.92,-55.7 6.96,-13.93 12.18,-26.11 20.89,-38.29 27.85,13.93 55.7,27.85 85.3,43.52 0,-40.04 3.48,-78.33 0,-116.63 -5.22,-41.78 10.44,-67.89 50.48,-81.82 22.63,-8.7 43.52,-24.37 66.15,-33.07 10.44,-3.48 26.11,-5.22 36.55,0 33.07,13.93 64.41,31.33 95.74,48.74 13.93,6.96 20.89,17.41 20.89,33.07 0,48.74 0,95.74 0,147.96 38.29,-19.15 71.37,-36.56 106.18,-53.96 3.48,-1.74 5.22,-12.19 5.22,-17.41 0,-73.11 0,-144.48 0,-217.59 0,-8.7 -6.96,-19.15 -13.93,-22.63 -38.3,-20.89 -78.33,-41.78 -116.63,-60.93 -17.41,-8.7 -24.37,-19.15 -24.37,-38.3 0,-269.81 0,-539.63 0,-809.44 0,-17.41 6.96,-29.59 22.63,-36.55 40.03,-19.15 80.07,-40.04 120.11,-60.93 6.96,-3.48 13.93,-15.67 13.93,-22.63 1.74,-73.11 0,-144.48 0,-217.59 0,-6.96 -3.48,-15.67 -8.7,-17.41 -33.07,-17.41 -66.15,-34.81 -102.7,-53.96 0,29.59 0,55.7 0,81.82 0,22.63 0,45.26 0,67.89 0,15.67 -5.22,26.11 -19.15,31.33 -33.07,15.67 -64.41,34.81 -97.48,48.74 -10.44,5.22 -24.37,3.48 -34.81,0 -33.07,-13.93 -64.41,-33.07 -95.74,-48.74 -15.67,-6.96 -20.89,-19.15 -20.89,-34.81 0,-47 0,-95.74 0,-146.22 -38.29,19.15 -73.11,36.55 -106.18,53.96 -3.48,1.74 -5.22,12.19 -5.22,17.41 0,73.11 0,144.48 0,217.59 0,12.18 5.22,17.41 15.67,22.63 40.03,19.15 78.33,40.04 118.37,59.18 17.41,8.71 24.37,19.15 24.37,38.3 0,269.81 0,541.37 0,811.18 0,17.41 -6.96,27.85 -22.63,34.81 -38.3,19.15 -76.59,40.03 -116.63,57.44 -15.67,6.96 -20.89,15.67 -19.15,33.07 1.74,8.7 1.74,19.15 0,29.59 0,6.96 -3.48,15.67 -6.96,17.41 -31.33,10.45 -27.85,41.78 -45.26,66.15 13.93,12.19 27.85,24.37 40.04,36.55 12.18,12.19 12.18,24.37 0,36.56 -29.59,29.59 -59.19,59.18 -88.78,88.78 -13.93,13.93 -27.85,13.93 -38.3,0 -26.11,-38.29 -55.7,-38.29 -94,-8.7 0,13.93 0,31.33 0,48.74 0,17.41 -8.7,27.85 -27.85,27.85 -41.78,0 -83.56,0 -125.33,0 -17.41,0 -26.11,-8.7 -26.11,-26.11 0,-1.74 0,-5.22 0,-6.96 5.22,-33.07 -3.48,-55.7 -40.04,-64.41 -13.93,-3.48 -20.89,-3.48 -29.59,6.96 -43.52,47 -43.52,43.52 -87.04,0 -24.37,-24.37 -45.26,-59.18 -74.85,-71.37 -31.33,-12.19 -69.63,-3.48 -106.19,-3.48 -52.22,0 -106.18,0 -158.4,0 -6.96,0 -17.41,5.22 -22.63,12.19 -125.33,203.66 -402.11,203.66 -529.18,0 -3.48,-6.96 -13.93,-12.19 -22.63,-12.19 -80.07,0 -160.15,0 -240.22,0 -26.11,0 -33.07,-6.96 -33.07,-33.07 0,-71.37 0,-141 0,-212.37 0,-26.11 6.96,-31.33 31.33,-31.33 15.67,0 31.33,0 48.74,0 0,-52.22 3.48,-102.7 0,-153.18 -3.48,-40.03 12.19,-67.89 40.04,-95.74 144.48,-144.48 318.55,-217.59 522.22,-217.59 64.41,0 128.82,0 193.22,0 15.67,0 24.37,-5.22 33.07,-17.41 55.7,-67.89 107.92,-137.52 168.85,-200.18 181.04,-184.52 402.11,-280.26 659.74,-294.18 3.48,0 8.7,0 15.67,-1.74 0,-38.29 0,-74.85 0,-111.41 0,-34.81 0,-67.89 0,-102.7 0,-15.67 5.22,-24.37 19.15,-31.33 48.74,-24.37 95.74,-48.74 142.74,-73.11 24.37,-12.19 38.3,-3.48 38.3,24.37 0,52.22 0,102.7 0,154.92 0,12.19 3.48,19.15 15.67,26.11 74.85,38.3 74.85,38.3 147.96,0 12.19,-5.22 15.67,-12.19 15.67,-26.11 0,-50.48 0,-100.96 0,-151.44 0,-31.33 13.93,-40.04 41.78,-26.11 52.22,27.85 106.18,53.96 158.4,81.82 0,99.22 0,200.18 0,299.41 -47,24.37 -94,50.48 -142.74,74.85 -10.45,5.22 -15.67,10.45 -15.67,24.37 0,257.63 0,515.26 0,772.88 0,12.19 3.48,19.15 15.67,24.37 40.04,19.15 78.33,40.03 116.63,59.18 8.7,5.22 15.67,12.19 24.37,19.15 -1.74,97.48 -1.74,193.22 -1.74,290.7zm-583.15 -1281.18c-5.22,0 -6.96,0 -10.44,0 -5.22,0 -12.19,0 -17.41,0 -235,15.67 -440.4,102.7 -607.51,271.56 -66.15,67.89 -123.59,144.48 -184.52,219.33 -12.19,13.93 -22.63,20.89 -41.78,20.89 -69.63,-1.74 -139.26,0 -208.89,0 -73.11,0 -146.22,10.45 -215.85,33.07 -47,15.67 -92.26,34.81 -135.78,62.67 26.11,0 50.48,0 73.11,0 24.37,0 31.33,8.7 29.59,33.07 -3.48,53.96 -43.52,100.96 -95.74,113.15 -15.67,3.48 -33.07,5.22 -48.74,5.22 -40.04,0 -81.82,0 -121.85,0 0,60.92 0,116.63 0,174.07 48.74,0 97.48,0 144.48,0 12.19,0 17.41,-3.48 24.37,-13.93 123.59,-203.67 403.85,-203.67 527.44,0 6.96,10.44 13.93,13.93 24.37,13.93 59.18,0 120.11,0 179.29,0 13.93,0 29.59,5.22 36.56,-15.67 1.74,-3.48 12.18,-6.96 19.15,-6.96 13.93,-1.74 26.11,0 40.04,0 5.22,0 13.93,-3.48 15.67,-8.7 6.96,-15.67 13.93,-33.07 20.89,-50.48 -12.19,-12.19 -24.37,-22.63 -36.56,-33.07 -13.93,-13.93 -13.93,-26.11 0,-40.04 29.59,-29.59 57.45,-57.44 87.04,-87.04 13.93,-13.93 27.85,-13.93 40.04,1.74 12.18,12.19 22.63,26.11 31.33,36.55 22.63,-10.44 41.78,-17.41 60.93,-26.11 0,-17.41 0,-34.81 0,-52.22 0,-17.41 8.7,-26.11 26.11,-26.11 41.78,0 83.56,0 125.33,0 19.15,0 27.85,8.71 27.85,27.85 0,17.41 0,34.81 0,52.22 20.89,8.7 38.29,15.67 60.92,24.37 10.45,-12.18 20.89,-24.37 33.07,-36.55 13.93,-13.93 26.11,-13.93 40.04,0 29.59,29.59 57.44,57.44 87.04,87.04 13.93,13.93 13.93,27.85 -1.74,40.03 -12.19,12.19 -26.11,22.63 -38.29,33.07 5.22,10.45 6.96,13.93 8.7,17.41 6.96,36.55 29.59,48.74 66.15,43.52 10.45,-1.74 24.37,8.7 36.56,13.93 6.96,1.74 17.41,-3.48 26.11,-6.96 20.89,-6.96 27.85,-20.89 27.85,-43.52 -1.74,-245.45 0,-490.89 0,-736.33 0,-8.71 0,-15.67 0,-24.37 -73.11,0 -142.74,-1.74 -214.11,0 -161.89,3.48 -304.63,57.45 -426.48,163.63 -24.37,20.89 -45.26,45.26 -67.89,67.89 17.41,5.22 33.07,5.22 47,5.22 71.37,-6.96 113.15,55.7 92.26,111.41 0,0 1.74,1.74 1.74,5.22 165.37,0 332.48,0 499.59,0 0,15.67 0,27.85 0,43.52 -6.96,0 -13.93,0 -20.89,0 -224.56,0 -450.85,0 -675.4,0 -27.85,0 -57.45,0 -85.3,0 -19.15,0 -27.85,-8.7 -27.85,-27.85 0,-17.41 0,-34.81 0,-52.22 1.74,-47 34.81,-81.82 81.82,-81.82 19.15,0 31.33,-6.96 43.52,-20.89 147.96,-175.81 337.7,-262.85 567.48,-262.85 38.29,0 74.85,0 113.15,0 -15.67,-12.19 -31.33,-20.89 -47,-29.59 -13.93,-8.7 -34.81,-13.93 -36.55,-38.3zm-76.59 731.11c-10.44,12.18 -19.15,26.11 -31.33,34.81 -8.71,5.22 -22.63,8.7 -33.07,5.22 -24.37,-6.96 -47,-17.41 -69.63,-29.59 -8.7,-5.22 -17.41,-15.67 -19.15,-26.11 -3.48,-15.67 0,-31.33 0,-48.74 -31.33,0 -59.18,0 -88.78,0 0,15.67 0,31.33 0,45.26 0,15.67 -6.96,24.37 -20.89,29.59 -22.63,8.7 -45.26,17.41 -66.15,27.85 -15.67,6.96 -27.85,6.96 -38.3,-5.22 -10.44,-10.44 -19.15,-22.63 -26.11,-31.33 -24.37,24.37 -45.26,43.52 -69.63,66.15 8.7,8.71 17.41,17.41 27.85,24.37 15.67,13.93 17.41,27.85 6.96,45.26 -10.45,17.41 -19.15,38.3 -24.37,57.45 -5.22,19.15 -15.67,26.11 -34.81,26.11 -13.93,0 -26.11,0 -40.04,0 0,31.33 0,59.19 0,88.78 15.67,0 29.59,0 43.52,0 17.41,0 26.11,6.96 31.33,24.37 6.96,20.89 15.67,41.78 26.11,60.93 6.96,15.67 8.7,27.85 -5.22,40.03 -12.19,8.71 -22.63,17.41 -31.33,24.37 26.11,26.11 45.26,47 67.89,71.37 8.71,-10.44 19.15,-22.63 27.85,-33.07 12.19,-13.93 24.37,-13.93 40.04,-5.22 20.89,10.44 41.78,19.15 64.41,26.11 15.67,5.22 22.63,13.93 22.63,31.33 0,13.93 0,29.59 0,45.26 31.33,0 59.18,0 90.52,0 0,-13.93 0,-27.85 0,-41.78 -1.74,-19.15 6.96,-29.59 26.11,-34.81 20.89,-6.96 40.04,-15.67 59.19,-24.37 15.67,-8.7 29.59,-8.7 41.78,6.96 8.7,10.44 17.41,22.63 24.37,31.33 26.11,-24.37 45.26,-43.52 71.37,-67.89 -12.19,-10.45 -26.11,-19.15 -34.81,-31.33 -5.22,-6.96 -10.45,-22.63 -6.96,-27.85 22.63,-29.59 17.41,-73.11 50.48,-97.48 1.74,-1.74 1.74,-5.22 1.74,-8.7 -8.7,-41.78 12.19,-62.67 47,-74.85 0,0 0,-1.74 0,-5.22 -12.19,0 -26.11,0 -38.3,0 -19.15,1.74 -27.85,-6.96 -34.81,-24.37 -6.96,-22.63 -17.41,-43.52 -26.11,-64.41 -6.96,-13.93 -6.96,-26.11 5.22,-36.55 10.45,-10.44 20.89,-22.63 31.33,-33.07 -24.37,-17.41 -45.26,-36.55 -67.89,-60.92zm-1072.29 598.81c142.74,0 259.37,-116.63 259.37,-259.37 0,-142.74 -116.63,-261.11 -261.11,-261.11 -142.74,0 -259.37,116.63 -259.37,259.37 0,144.48 118.37,262.85 261.11,261.11zm496.11 -351.63c-66.15,0 -128.81,0 -191.48,0 0,62.67 0,123.59 0,186.26 24.37,0 45.26,0 67.89,0 64.41,0 128.82,0 193.22,0 26.11,0 33.07,-13.93 26.11,-38.29 -8.7,-34.82 -27.85,-45.26 -60.93,-38.3 -1.74,0 -5.22,0 -6.96,0 -19.15,0 -27.85,-8.7 -27.85,-29.59 0,-26.11 0,-52.22 0,-80.07zm-1011.36 0c0,62.67 0,123.59 0,186.26 69.63,0 139.26,0 207.15,0 0,-62.67 0,-123.59 0,-186.26 -67.89,0 -137.52,0 -207.15,0zm988.73 -511.77c64.41,0 127.07,0 188,0 20.89,0 34.81,-15.67 34.81,-34.81 0,-19.15 -13.93,-34.81 -36.55,-34.81 -50.48,0 -100.96,0 -151.44,0 -20.89,0 -34.81,13.93 -34.81,34.81 0,8.7 0,20.89 0,34.81zm-689.33 184.52c-67.89,-3.48 -149.7,24.37 -181.04,60.93 36.55,0 73.11,1.74 109.67,0 36.55,-3.48 59.18,-24.37 71.37,-60.93z"/>
    <path class="fil0" d="M1369.96 2253.98c0,-99.22 80.07,-179.3 179.29,-179.3 99.22,0 179.3,81.82 177.56,181.04 0,97.48 -80.07,177.56 -179.3,177.56 -95.74,0 -177.55,-80.07 -177.55,-179.3zm48.74 -20.89c-12.19,50.48 12.18,104.44 59.18,134.04 48.74,29.59 107.93,27.85 153.18,-6.96 40.04,-29.59 62.67,-95.74 48.74,-127.08 -87.04,0 -174.07,0 -261.11,0zm247.18 -47c-34.81,-48.74 -76.59,-71.37 -130.56,-64.41 -41.78,5.22 -76.59,26.11 -99.22,64.41 76.59,0 151.44,0 229.78,0z"/>
    <path class="fil0" d="M842.52 2328.83c-1.74,90.52 -78.33,163.63 -168.85,161.89 -92.26,-1.74 -165.37,-78.33 -163.63,-170.59 1.74,-90.52 78.33,-163.63 168.85,-161.89 92.26,3.48 165.37,78.33 163.63,170.59zm-287.22 -5.22c0,66.15 53.96,121.85 120.11,121.85 66.15,0 121.85,-52.22 121.85,-120.11 0,-66.15 -53.96,-121.85 -120.11,-121.85 -66.15,0 -121.85,53.96 -121.85,120.11z"/>
   </g>
  </g>
 </g>
</svg>
