<?xml version="1.0" encoding="UTF-8"?>
<!DOCTYPE svg PUBLIC "-//W3C//DTD SVG 1.1//EN" "http://www.w3.org/Graphics/SVG/1.1/DTD/svg11.dtd">
<!-- Creator: CorelDRAW 2021 (64-Bit) -->
<svg xmlns="http://www.w3.org/2000/svg" xml:space="preserve" width="87.63mm" height="87.7233mm" version="1.1" style="shape-rendering:geometricPrecision; text-rendering:geometricPrecision; image-rendering:optimizeQuality; fill-rule:evenodd; clip-rule:evenodd"
viewBox="0 0 8761.06 8770.39"
 xmlns:xlink="http://www.w3.org/1999/xlink"
 xmlns:xodm="http://www.corel.com/coreldraw/odm/2003">
 <defs>
  <style type="text/css">
   <![CDATA[
    .fil0 {fill:#1D1D1B;fill-rule:nonzero}
   ]]>
  </style>
 </defs>
 <g id="Layer_x0020_1">
  <metadata id="CorelCorpID_0Corel-Layer"/>
  <path class="fil0" d="M12.54 8507.1c169.26,0 338.53,0 520.33,0 43.88,-601.84 87.76,-1197.39 137.92,-1805.49 81.49,6.27 162.99,12.54 257.02,18.81 -43.88,601.83 -87.76,1191.12 -131.65,1780.41 507.8,0 1003.05,0 1517.11,0 -94.04,-1278.88 -194.34,-2557.76 -288.38,-3836.65 -313.45,0 -620.63,0 -940.36,0 -43.88,595.56 -87.76,1191.12 -137.92,1799.22 -81.49,-6.28 -162.99,-12.55 -250.75,-12.55 56.42,-1285.15 244.49,-2551.5 213.14,-3836.65 -81.49,0 -162.99,0 -250.75,0 0,-87.76 0,-169.26 0,-257.03 169.26,0 332.26,0 507.79,0 0,-81.49 6.27,-156.73 -6.27,-231.95 0,-31.34 -37.61,-62.7 -68.96,-68.96 -369.87,-131.65 -545.4,-545.4 -369.87,-890.2 81.5,-169.26 213.14,-275.84 394.95,-332.26 37.61,-12.54 56.42,-31.34 62.69,-75.22 87.77,-457.65 445.1,-752.29 909.01,-752.29 746.01,0 1492.04,0 2238.05,0 369.87,0 651.98,156.73 833.78,476.45 6.27,12.54 12.54,18.81 18.82,25.07 514.06,-162.99 689.59,-150.46 1128.42,62.69 282.11,-369.87 651.99,-570.48 1122.16,-570.48 307.18,0 576.75,100.31 827.52,300.91 -56.43,68.96 -106.58,131.65 -156.73,200.62 -294.64,-225.69 -620.64,-300.91 -977.97,-200.62 -351.07,94.04 -589.29,332.27 -739.75,664.52 -432.56,-401.22 -877.67,-420.03 -1347.84,-50.15 -12.55,-50.16 -25.08,-87.77 -37.62,-125.38 -94.03,-351.07 -319.72,-526.6 -689.59,-526.6 -733.48,0 -1466.97,6.27 -2200.44,-6.27 -394.94,-6.27 -720.93,307.18 -677.05,727.21 0,25.07 0,43.88 0,81.5 -56.43,0 -112.85,0 -162.99,0 -169.26,12.54 -319.73,144.19 -344.8,313.45 -31.34,188.07 62.7,351.06 244.5,420.03 0,-75.23 0,-144.19 0,-219.42 94.04,0 169.26,0 257.03,0 0,250.76 0,501.53 0,758.55 87.76,0 169.26,0 257.03,0 0,-363.6 0,-720.94 0,-1090.81 87.76,0 162.99,0 257.02,0 0,75.22 0,144.19 0,231.95 175.53,-31.34 300.91,-106.57 401.22,-231.95 100.31,-125.38 119.11,-282.11 119.11,-438.83 382.41,0 758.55,0 1140.97,0 0,81.49 0,156.73 0,244.5 -125.38,12.54 -238.23,56.42 -307.18,169.26 -37.62,62.69 -62.7,144.19 -68.96,219.41 -12.54,162.99 87.77,300.91 250.76,357.34 0,-75.23 0,-144.19 0,-219.42 94.03,0 169.26,0 257.03,0 0,250.76 0,501.53 0,758.55 87.76,0 169.26,0 257.02,0 0,-338.53 0,-670.78 0,-1015.59 87.77,0 169.27,0 257.03,0 0,50.16 0,100.31 0,144.19 -6.27,50.16 18.81,68.96 68.96,75.23 125.37,12.54 244.49,-18.81 357.33,-75.23 37.61,-18.81 75.23,-31.34 131.65,-56.42 0,463.91 175.53,821.25 626.9,965.44 457.64,144.19 802.44,-43.89 1065.74,-432.56 231.95,307.18 520.32,482.71 902.74,495.25 269.57,6.27 501.52,-81.5 708.4,-244.5 394.94,-319.72 583.02,-959.16 162.99,-1529.64 62.69,-50.15 125.38,-100.31 188.07,-150.46 376.15,432.56 451.37,1197.38 -50.15,1749.06 -470.19,520.32 -1303.96,614.36 -1905.79,87.76 -326,300.91 -702.13,413.76 -1134.7,288.38 -426.3,-125.37 -683.33,-420.02 -796.17,-840.04 -106.57,6.27 -213.14,12.54 -325.99,18.81 0,175.53 0,351.06 0,539.13 162.99,0 325.99,0 495.26,0 0,87.77 0,169.27 0,257.03 -81.5,0 -156.74,0 -244.5,0 -43.88,1109.62 112.85,2194.16 169.26,3297.52 608.1,-175.53 1203.65,-344.8 1811.75,-514.07 0,175.53 0,332.27 0,501.53 589.29,-169.26 1172.31,-332.27 1767.88,-501.53 0,1046.93 0,2075.05 0,3115.72 169.26,0 338.53,0 514.06,0 0,87.76 0,175.53 0,257.02 -2921.37,0 -5836.48,0 -8757.85,0 12.54,-94.03 12.54,-181.8 12.54,-263.29zm4607.75 -6.28c-94.04,-1285.15 -194.35,-2564.03 -288.38,-3836.65 -319.72,0 -626.91,0 -940.36,0 -100.3,1278.89 -194.34,2557.77 -288.38,3836.65 507.8,0 1003.05,0 1517.11,0zm-1579.8 -2564.03c56.42,-1115.89 219.41,-2212.97 175.53,-3335.13 -87.77,0 -169.26,0 -244.5,0 0,-87.76 0,-169.26 0,-257.03 169.27,0 338.54,0 507.8,0 0,-68.95 0,-125.37 0,-188.07 6.27,-56.42 -12.54,-87.77 -75.23,-106.58 -294.64,-94.03 -470.18,-363.6 -432.56,-664.51 12.54,-106.58 56.43,-206.88 87.77,-319.72 -94.04,0 -194.34,6.27 -300.91,0 -56.42,0 -75.23,18.81 -94.04,68.95 -87.76,288.38 -275.84,476.44 -564.22,570.48 -43.88,18.81 -125.37,18.81 -150.46,56.42 -31.34,43.89 -12.54,125.38 -12.54,181.81 0,131.65 0,263.29 0,407.48 175.53,0 338.54,0 507.8,0 0,87.77 0,169.27 0,257.03 -87.77,0 -162.99,0 -244.5,0 -37.61,1122.16 119.11,2219.24 175.53,3328.86 225.69,0 438.83,0 664.52,0zm4952.54 -200.61c-18.81,0 -31.34,0 -43.88,6.27 -470.19,131.65 -934.09,269.56 -1404.27,401.21 -62.7,12.54 -56.42,50.16 -56.42,94.04 0,727.21 0,1454.42 0,2181.63 0,25.07 0,56.42 6.27,81.49 507.79,0 1003.04,0 1498.3,0 0,-927.81 0,-1843.09 0,-2764.64zm-1761.6 0c-18.81,6.27 -43.89,6.27 -62.7,6.27 -470.18,131.65 -940.35,269.56 -1410.53,401.21 -56.43,18.81 -56.43,43.89 -50.16,94.04 43.89,570.48 87.77,1147.24 131.65,1717.72 12.54,181.8 25.07,363.6 43.88,539.13 457.65,0 902.75,0 1354.12,0 -6.27,-915.28 -6.27,-1830.55 -6.27,-2758.37zm-3385.28 2764.64c56.42,-771.09 112.84,-1535.91 169.26,-2300.73 -213.15,0 -413.76,0 -620.64,0 56.43,771.09 112.85,1535.91 175.54,2300.73 94.03,0 175.53,0 275.84,0zm-1742.79 -4106.22c307.18,0 595.56,0 902.74,0 -18.81,-257.02 -37.61,-507.79 -56.43,-758.55 -263.29,0 -526.59,0 -789.9,0 -18.81,257.03 -37.61,507.8 -56.42,758.55zm3153.32 -758.55c-269.57,0 -526.59,0 -789.9,0 -18.81,257.03 -37.61,507.8 -56.43,758.55 307.18,0 601.84,0 902.75,0 -18.82,-257.02 -37.62,-501.52 -56.43,-758.55zm-2325.82 -263.3c0,-257.02 0,-507.79 0,-758.55 -257.03,0 -507.79,0 -752.28,0 0,257.03 0,507.8 0,758.55 250.76,0 495.25,0 752.28,0zm1548.46 -6.27c250.76,0 501.52,0 758.55,0 0,-257.02 0,-507.79 0,-758.55 -257.03,0 -507.79,0 -758.55,0 0,257.03 0,501.53 0,758.55z"/>
  <path class="fil0" d="M5717.36 3868c0,-438.83 344.8,-796.17 783.64,-814.98 426.3,-18.81 789.9,307.18 833.78,739.75 6.27,50.16 18.81,68.96 68.96,81.5 307.18,87.76 507.79,369.87 476.44,670.78 -31.34,313.46 -269.57,551.68 -583.02,583.02 -263.3,31.35 -532.87,-125.37 -639.44,-376.14 -25.08,-62.7 -56.43,-81.5 -125.38,-81.5 -451.37,6.27 -814.98,-357.33 -814.98,-802.43zm1122.16 476.44c6.27,62.69 6.27,106.58 12.54,156.73 12.54,219.42 181.8,382.42 394.95,376.15 213.14,-6.27 382.41,-181.81 376.14,-394.95 -6.27,-213.14 -181.8,-376.15 -407.49,-376.15 -50.15,0 -106.57,0 -150.46,0 0,-131.64 12.55,-257.02 -6.27,-376.14 -18.81,-125.38 -94.03,-231.96 -200.61,-307.18 -106.58,-81.5 -219.41,-119.11 -351.06,-112.85 -332.27,12.54 -570.48,300.91 -526.6,633.17 18.81,150.46 94.04,275.84 219.42,363.61 200.61,150.46 413.75,131.65 639.44,37.61z"/>
  <path class="fil0" d="M7685.85 846.32c81.49,0 156.73,0 244.49,0 0,81.5 0,162.99 0,250.76 -75.22,0 -156.73,0 -244.49,0 0,-87.77 0,-169.26 0,-250.76z"/>
  <path class="fil0" d="M7221.94 8243.79c-87.77,0 -163,0 -244.5,0 0,-557.95 0,-1109.62 0,-1667.57 81.49,0 156.73,0 244.5,0 0,557.95 0,1109.62 0,1667.57z"/>
  <path class="fil0" d="M7736 8243.79c-87.77,0 -162.99,0 -244.5,0 0,-557.95 0,-1109.62 0,-1667.57 81.5,0 163,0 244.5,0 0,557.95 0,1109.62 0,1667.57z"/>
  <path class="fil0" d="M5460.33 8243.79c-87.76,0 -162.99,0 -244.49,0 0,-557.95 0,-1109.62 0,-1667.57 81.49,0 162.99,0 244.49,0 0,557.95 0,1109.62 0,1667.57z"/>
  <path class="fil0" d="M5974.4 8243.79c-87.77,0 -162.99,0 -244.5,0 0,-557.95 0,-1109.62 0,-1667.57 81.5,0 162.99,0 244.5,0 0,557.95 0,1109.62 0,1667.57z"/>
  <path class="fil0" d="M1673.83 3115.72c-81.49,0 -162.99,0 -244.49,0 0,-81.5 0,-162.99 0,-250.76 81.49,0 162.99,0 244.49,0 0,81.49 0,162.99 0,250.76z"/>
  <path class="fil0" d="M3736.35 3109.45c0,-81.5 0,-156.73 0,-244.5 81.49,0 162.99,0 244.49,0 0,81.49 0,156.73 0,244.5 -81.49,0 -156.73,0 -244.49,0z"/>
 </g>
</svg>
