<?xml version="1.0" encoding="UTF-8"?>
<!DOCTYPE svg PUBLIC "-//W3C//DTD SVG 1.1//EN" "http://www.w3.org/Graphics/SVG/1.1/DTD/svg11.dtd">
<!-- Creator: CorelDRAW 2021 (64-Bit) -->
<svg xmlns="http://www.w3.org/2000/svg" xml:space="preserve" width="87.63mm" height="66.726mm" version="1.1" style="shape-rendering:geometricPrecision; text-rendering:geometricPrecision; image-rendering:optimizeQuality; fill-rule:evenodd; clip-rule:evenodd"
viewBox="0 0 4108.76 3128.62"
 xmlns:xlink="http://www.w3.org/1999/xlink"
 xmlns:xodm="http://www.corel.com/coreldraw/odm/2003">
 <defs>
  <style type="text/css">
   <![CDATA[
    .fil0 {fill:black;fill-rule:nonzero}
   ]]>
  </style>
 </defs>
 <g id="Layer_x0020_1">
  <metadata id="CorelCorpID_0Corel-Layer"/>
  <g id="_1636250597664">
   <path class="fil0" d="M-0 122.41c31.89,-90.37 98.34,-124.92 194.03,-122.26 138.22,5.31 281.74,-5.32 419.96,7.97 223.27,23.92 382.75,148.85 467.81,358.83 188.71,467.8 372.11,938.26 552.86,1408.73 45.19,116.95 162.14,194.03 284.4,194.03 454.51,-5.32 906.37,-2.66 1360.88,-2.66 122.27,0 209.98,-63.79 252.51,-178.08 87.71,-244.53 172.77,-491.72 260.48,-736.26 5.32,-13.29 13.29,-26.58 10.63,-37.21 -2.66,-10.63 -13.29,-26.58 -23.92,-31.9 -13.29,-5.31 -31.9,-2.65 -47.84,-2.65 -640.57,0 -1281.14,0 -1921.71,0 -55.81,0 -106.32,-13.29 -140.87,-61.14 -66.45,-85.05 -23.92,-209.98 79.74,-236.56 21.26,-5.32 45.19,-7.98 66.45,-7.98 643.23,0 1286.46,0 1929.68,0 95.69,0 183.4,18.6 255.17,85.05 108.98,101.01 132.9,225.93 85.05,361.48 -77.08,228.59 -159.48,457.17 -241.87,683.1 -26.58,74.42 -53.16,151.51 -98.35,217.96 -106.32,159.48 -263.14,244.53 -457.17,244.53 -465.15,2.66 -930.29,0 -1395.43,0 -233.9,0 -446.54,-143.53 -531.6,-364.14 -186.06,-473.12 -374.77,-946.24 -558.17,-1419.36 -39.87,-101 -154.16,-186.05 -268.45,-178.08 -114.29,5.32 -228.59,-2.66 -340.22,0 -93.03,2.66 -159.48,-29.23 -194.03,-119.61 0,-21.27 0,-42.53 0,-63.8z"/>
   <path class="fil0" d="M1483.15 2456.11c183.4,0 337.56,151.5 337.56,334.9 0,183.4 -151.51,337.56 -334.9,337.56 -183.4,0 -337.56,-151.5 -337.56,-334.9 -2.66,-183.4 148.84,-337.56 334.9,-337.56z"/>
   <path class="fil0" d="M3311.83 2791.02c2.65,-186.06 151.5,-334.9 337.56,-334.9 186.05,0 337.56,156.82 334.9,337.56 -2.66,186.06 -156.82,337.56 -340.22,334.9 -183.4,0 -334.9,-151.5 -332.25,-337.56z"/>
   <path class="fil0" d="M2636.71 1345.08c-212.64,0 -425.28,0 -637.91,0 -15.95,0 -31.9,0 -47.84,-2.66 -37.21,-5.32 -63.79,-37.21 -63.79,-71.77 0,-34.56 23.92,-66.45 61.13,-74.42 15.95,-2.66 34.56,-2.66 53.16,-2.66 422.62,0 845.23,0 1267.85,0 18.6,0 37.21,0 55.81,5.32 34.55,7.98 55.82,39.87 55.82,74.42 0,34.55 -26.58,63.79 -61.14,69.11 -15.95,2.66 -34.55,2.66 -53.16,2.66 -209.98,0 -419.96,0 -629.94,0z"/>
   <path class="fil0" d="M2649.99 1573.66c178.08,0 356.17,0 534.25,0 58.48,0 90.37,26.58 90.37,74.42 0,37.21 -15.95,61.13 -53.16,71.77 -18.61,5.32 -37.21,5.32 -55.82,5.32 -345.54,0 -688.41,0 -1033.95,0 -15.95,0 -31.9,0 -47.84,-2.66 -39.87,-7.98 -63.79,-39.87 -61.13,-77.08 2.66,-37.21 31.89,-66.45 71.77,-69.11 39.87,-2.66 77.08,0 116.95,0 146.19,-2.66 292.38,-2.66 438.57,-2.66z"/>
  </g>
 </g>
</svg>
