<svg xmlns="http://www.w3.org/2000/svg" viewBox="0 0 133.3 135.35"><g id="Layer_2" data-name="Layer 2"><g id="Layer_1-2" data-name="Layer 1"><path d="M132.13,93.11a5.2,5.2,0,0,0-4.52-1.89c-13.85,1.48-19.33,9-22.09,16a24.36,24.36,0,0,0-6.19-9.38,44.51,44.51,0,0,0,11-13.12,62.25,62.25,0,0,0,7.22-23.93,5.23,5.23,0,0,0-5.41-5.65c-15,.67-26.84,5.63-35,14.74a45.14,45.14,0,0,0-8.21,13.34V67.55c2.81-2.68,14.73-15,15.57-32.26C85,23.49,80.27,12.09,70.31,1.4a4.52,4.52,0,0,0-6.68.16C60,5.47,52.7,16.75,51.07,26.56a40.63,40.63,0,0,0,.86,19.77c2.18,7.33,6.53,14.37,12.91,20.94V83.19a45.14,45.14,0,0,0-8.21-13.34c-8.19-9.11-20-14.07-35-14.74a5.23,5.23,0,0,0-5.41,5.65,65.61,65.61,0,0,0,3.52,15.82,47.57,47.57,0,0,0,14.46,21,24.34,24.34,0,0,0-6.39,9.57c-.12-.32-.25-.63-.38-1-2.59-6.15-8.45-13.75-21.71-15A5.22,5.22,0,0,0,.07,97.17c1.06,7,5.68,22.91,25.7,23.91v12.25a2,2,0,0,0,4.05,0V121.08c13.31-.67,19.79-7.94,23-14.67a61.94,61.94,0,0,0,12.08,1.46V131.3H59.67a2,2,0,1,0,0,4h14a2,2,0,1,0,0-4H68.89V107.87a56.79,56.79,0,0,0,18.84-3.49l12.41,12.28a21,21,0,0,1-11.51-5.61,2,2,0,0,0-2.84,2.89c4.46,4.38,10.41,6.77,17.7,7.14v12.25a2,2,0,0,0,4.05,0V121.08c20-1,24.64-16.93,25.7-23.91a5.17,5.17,0,0,0-1.11-4.06Zm-5.53,2.31-18.69,18.49a27.2,27.2,0,0,1,1.72-6.1c3-7.08,8.69-11.24,17-12.39ZM95,96a39.2,39.2,0,0,1-7.67,4.2A50.34,50.34,0,0,1,72,103.66L90.09,85.51h15A38.89,38.89,0,0,1,95,96ZM85.53,67.63c6.58-4.87,15-7.68,25-8.37l-25,25.09Zm22,13.83H94.13l19.18-19.2a57.3,57.3,0,0,1-5.82,19.2ZM80.14,72.53c.43-.48.88-1,1.34-1.41V88.4L69,100.86c.5-6.68,2.61-18.91,11.1-28.33ZM68.89,61.62V48.48l10.85-8C77.82,50,72.43,57.51,68.89,61.62ZM80.42,34.89,68.89,43.44V5.89c8.08,9.28,12,19,11.53,29ZM64.84,6.5V30.91l-8.61-8.16A55.12,55.12,0,0,1,64.84,6.5ZM55,27.34l0-.12,9.77,9.27V61.25C56,50.75,52.65,39.36,55,27.34ZM53.6,72.53C62.09,82,64.2,94.18,64.7,100.86l-22-22V64.25a36.87,36.87,0,0,1,10.9,8.28ZM23.16,59.26a54.13,54.13,0,0,1,15.49,3.21v12.3Zm-2.73,3L31.77,73.61H23a61,61,0,0,1-2.53-11.35Zm8.72,24a46.66,46.66,0,0,1-4.68-8.61H35.81l26,26c-13-.84-25.24-6.47-32.62-17.39Zm8.39,13.81a41.28,41.28,0,0,0,4.19,2.41l-11.52,11.4c.68-4.1,2.5-9.81,7.33-13.81Zm-13.92,7.6a26.82,26.82,0,0,1,1.77,6.22L6.71,95.42c8.24,1.14,13.92,5.26,16.91,12.26ZM4.53,99l17.89,17.7c-12-2-16.36-10.94-17.89-17.7Zm28.64,17.71,12.53-12.4q1.5.58,3.09,1.08c-3.17,6.33-8.41,10.12-15.62,11.32ZM96,100.23c4.69,4,6.47,9.62,7.14,13.66L91.73,102.64A43.09,43.09,0,0,0,96,100.23Zm14.93,16.42L128.79,99c-1.54,6.76-5.87,15.66-17.9,17.7Z"/></g></g></svg>