<svg xmlns="http://www.w3.org/2000/svg" viewBox="0 0 140.8 140.8"><g id="Layer_2" data-name="Layer 2"><g id="Layer_1-2" data-name="Layer 1"><path d="M90.84,97.29V81.75h4.54V77.21H68.13v4.54h4.54V97.29a23.18,23.18,0,0,0-4.28,2.53L54.5,74.36V63.59h4.55V59.05H54.5V52.23A2.27,2.27,0,0,0,52.23,50H50V43.15a2.27,2.27,0,0,0-2.27-2.27H34.06a2.27,2.27,0,0,0-2.27,2.27V50H29.52a2.27,2.27,0,0,0-2.27,2.27v6.82H22.71v4.54h4.54V74.36L1.39,121.78A11.37,11.37,0,0,0,0,127.22v2.23A11.36,11.36,0,0,0,11.35,140.8H70.4a11.44,11.44,0,0,0,4.65-1,22.7,22.7,0,0,0,15.79-42.5ZM86.3,81.75V86.3H77.21V81.75ZM75.7,101a2.26,2.26,0,0,0,1.51-2.14v-8H86.3v8A2.26,2.26,0,0,0,87.81,101,18.2,18.2,0,0,1,99.3,113.57a6.75,6.75,0,0,0-4.58,2l-1.89,1.88a2.24,2.24,0,0,1-1.6.67h-.78a2.28,2.28,0,0,1-1.61-.67L87,115.54a6.78,6.78,0,0,0-4.81-2h-.79a6.76,6.76,0,0,0-4.81,2l-1.88,1.88a2.28,2.28,0,0,1-1.61.67h-.78a2.24,2.24,0,0,1-1.6-.67l-1.89-1.88a6.73,6.73,0,0,0-4.58-2A18.2,18.2,0,0,1,75.7,101ZM36.34,45.42h9.08V50H36.34ZM31.79,54.5H50v4.55H31.79ZM31.52,76a2.29,2.29,0,0,0,.27-1.09V63.59H50V74.94A2.3,2.3,0,0,0,50.24,76l8.09,14.84a6.79,6.79,0,0,0-4.49,2L52,94.72a2.31,2.31,0,0,1-1.61.66h-.78a2.27,2.27,0,0,1-1.6-.66l-1.89-1.89a6.76,6.76,0,0,0-4.81-2h-.78a6.8,6.8,0,0,0-4.82,2l-1.88,1.89a2.31,2.31,0,0,1-1.61.66H31.4a2.29,2.29,0,0,1-1.6-.66l-1.88-1.89a6.8,6.8,0,0,0-4.5-2ZM11.35,136.26a6.82,6.82,0,0,1-6.81-6.81v-2.23A6.84,6.84,0,0,1,5.37,124L21,95.38H23.1a2.28,2.28,0,0,1,1.61.67l1.88,1.88a6.76,6.76,0,0,0,4.81,2h.78a6.79,6.79,0,0,0,4.82-2l1.88-1.88a2.28,2.28,0,0,1,1.61-.67h.78a2.24,2.24,0,0,1,1.6.67l1.88,1.88a6.8,6.8,0,0,0,4.82,2h.78a6.8,6.8,0,0,0,4.82-2l1.88-1.88a2.26,2.26,0,0,1,1.6-.67h2.14l4.11,7.54a22.61,22.61,0,0,0,3.29,33.34Zm70.4,0a18.19,18.19,0,0,1-18.16-18.17H64a2.26,2.26,0,0,1,1.6.67l1.88,1.88a6.8,6.8,0,0,0,4.82,2h.78a6.8,6.8,0,0,0,4.82-2l1.88-1.88a2.26,2.26,0,0,1,1.6-.67h.79a2.26,2.26,0,0,1,1.6.67l1.88,1.88a6.8,6.8,0,0,0,4.82,2h.78a6.8,6.8,0,0,0,4.82-2l1.88-1.88a2.24,2.24,0,0,1,1.6-.67h.39a18.19,18.19,0,0,1-18.17,18.17Z"/><path d="M15.9,118.09a6.82,6.82,0,1,0,6.81,6.81,6.83,6.83,0,0,0-6.81-6.81Zm0,9.08a2.27,2.27,0,1,1,2.27-2.27,2.27,2.27,0,0,1-2.27,2.27Z"/><path d="M34.06,113.55a6.81,6.81,0,1,0,6.82,6.81,6.82,6.82,0,0,0-6.82-6.81Zm0,9.08a2.27,2.27,0,1,1,2.28-2.27,2.27,2.27,0,0,1-2.28,2.27Z"/><path d="M50,104.46a6.82,6.82,0,1,0,6.81,6.82A6.83,6.83,0,0,0,50,104.46Zm0,9.09a2.27,2.27,0,1,1,2.27-2.27A2.27,2.27,0,0,1,50,113.55Z"/><rect x="52.23" y="127.17" width="4.54" height="4.54"/><rect x="47.69" y="122.63" width="4.54" height="4.54"/><rect x="43.15" y="127.17" width="4.54" height="4.54"/><rect x="24.98" y="106.74" width="4.54" height="4.54"/><path d="M138.53,31.79H106.74a2.28,2.28,0,0,0-2.28,2.27v9.09a2.28,2.28,0,0,0,2.28,2.27H109v81.75a13.63,13.63,0,1,0,27.25,0V45.42h2.27a2.27,2.27,0,0,0,2.27-2.27V34.06a2.27,2.27,0,0,0-2.27-2.27Zm-15.9,104.47a9.09,9.09,0,0,1-9.08-9.09v-50h18.17v50a9.1,9.1,0,0,1-9.09,9.09Zm9.09-63.59H113.55V45.42h18.17Zm4.54-31.79H109V36.34h27.25Z"/><rect x="118.09" y="124.9" width="4.54" height="4.54"/><rect x="122.63" y="115.82" width="4.54" height="4.54"/><rect x="118.09" y="106.74" width="4.54" height="4.54"/><rect x="122.63" y="97.65" width="4.54" height="4.54"/><rect x="118.09" y="88.57" width="4.54" height="4.54"/><path d="M36.34,25a2.27,2.27,0,0,1,2.27-2.27h6.81V36.34H50V22.71H72.67v50h4.54v-50H84A2.27,2.27,0,0,1,86.3,25V72.67h4.54V25A6.82,6.82,0,0,0,84,18.17H77.21V15.9a2.27,2.27,0,0,1,2.27-2.27h27.26A2.27,2.27,0,0,1,109,15.9V27.25h4.54V15.9a6.83,6.83,0,0,0-6.81-6.82H79.48a6.83,6.83,0,0,0-6.81,6.82v2.27H50V6.81a2.27,2.27,0,0,1,2.27-2.27h77.22a2.27,2.27,0,0,1,2.27,2.27V27.25h4.54V6.81A6.82,6.82,0,0,0,129.45,0H52.23a6.82,6.82,0,0,0-6.81,6.81V18.17H38.61A6.83,6.83,0,0,0,31.79,25V36.34h4.55Z"/><path d="M13.63,34.06a6.81,6.81,0,1,0,6.81-6.81,6.82,6.82,0,0,0-6.81,6.81Zm9.08,0a2.27,2.27,0,1,1-2.27-2.27,2.28,2.28,0,0,1,2.27,2.27Z"/><path d="M11.35,22.71A11.36,11.36,0,1,0,0,11.35,11.37,11.37,0,0,0,11.35,22.71Zm0-18.17a6.82,6.82,0,1,1-6.81,6.81,6.83,6.83,0,0,1,6.81-6.81Z"/><path d="M9.08,63.59A9.09,9.09,0,1,0,0,54.5a9.1,9.1,0,0,0,9.08,9.09ZM9.08,50A4.55,4.55,0,1,1,4.54,54.5,4.55,4.55,0,0,1,9.08,50Z"/></g></g></svg>