<svg xmlns="http://www.w3.org/2000/svg" viewBox="0 0 138.23 135.96"><g id="Layer_2" data-name="Layer 2"><g id="Layer_1-2" data-name="Layer 1"><path d="M129.16,61.18a9.05,9.05,0,0,0-8.74,6.8H111a2.29,2.29,0,0,0-1.6.66l-12,12V73.45L124,46.92a2.27,2.27,0,0,0,.66-1.6V17.81a9.07,9.07,0,1,0-4.53,0V44.38l-2.27,2.27-6.8-6.8V29.46H106.5V40.79a2.24,2.24,0,0,0,.67,1.6l7.46,7.46L102,62.51,97.44,58V49.85H92.91v9.07a2.25,2.25,0,0,0,.66,1.6l5.2,5.19-5.2,5.2a2.23,2.23,0,0,0-.66,1.6V90.64H83.84V53.06L96.77,40.12a2.24,2.24,0,0,0,.67-1.6V24.6a9.07,9.07,0,1,0-4.53,0v13L80,50.52a2.27,2.27,0,0,0-.66,1.6V90.64H70.25V17.81a9.06,9.06,0,1,0-4.54,0v47L58.92,58V40.79H54.38V58.92a2.26,2.26,0,0,0,.67,1.6L65.71,71.18V90.64H56.65V79.31a2.27,2.27,0,0,0-.66-1.6L34.93,56.65l12-12a2.26,2.26,0,0,0,.67-1.61V26.87a9.06,9.06,0,1,0-4.54,0V42.12L31.72,53.45l-4.53-4.54V40.47a9.07,9.07,0,1,0-4.53,0v9.38a2.27,2.27,0,0,0,.66,1.6l28.8,28.8V90.64H43.05v-6.8a2.23,2.23,0,0,0-.66-1.6L11.33,51.18V17.81a9.07,9.07,0,1,0-4.53,0V52.12a2.27,2.27,0,0,0,.66,1.6l12,12H18.13a2.24,2.24,0,0,0-1.6.67l-2.89,2.88A9,9,0,1,0,18.13,77a8.93,8.93,0,0,0-1.29-4.57l2.23-2.22H24L38.52,84.78v5.86H19.68a9,9,0,0,0-8.45,5.78L.65,123.61A9.07,9.07,0,0,0,9.1,136H126.86a9.07,9.07,0,0,0,8.45-12.35L124.73,96.42a9,9,0,0,0-8.45-5.78H97.44V87.05L112,72.51h8.45a9.05,9.05,0,1,0,8.74-11.33ZM117.83,9.06a4.54,4.54,0,1,1,4.53,4.54A4.53,4.53,0,0,1,117.83,9.06Zm-27.19,6.8a4.53,4.53,0,1,1,4.53,4.53A4.53,4.53,0,0,1,90.64,15.86ZM63.45,9.06A4.53,4.53,0,1,1,68,13.6,4.53,4.53,0,0,1,63.45,9.06ZM40.79,18.13a4.53,4.53,0,1,1,4.53,4.53A4.53,4.53,0,0,1,40.79,18.13ZM20.39,31.72a4.54,4.54,0,1,1,4.54,4.54A4.54,4.54,0,0,1,20.39,31.72ZM4.53,9.06A4.54,4.54,0,1,1,9.06,13.6,4.53,4.53,0,0,1,4.53,9.06ZM9.06,81.58A4.54,4.54,0,1,1,13.6,77,4.54,4.54,0,0,1,9.06,81.58ZM92.91,95.17V99.7H83.84V95.17Zm4.53,18.13v-9.06h9.69l5.29,15.86H23.54l5.28-15.86h9.7v9.06h4.53v-9.06h9.07v9.06h4.53v-9.06h9.06v9.06h4.54v-9.06h9.06v9.06h4.53v-9.06h9.07v9.06ZM79.31,95.17V99.7H70.25V95.17Zm-13.6,0V99.7H56.65V95.17Zm-13.59,0V99.7H43.05V95.17Zm64.16,0a4.52,4.52,0,0,1,4.23,2.89l10.57,27.19a4.54,4.54,0,0,1-4.22,6.18H9.1a4.54,4.54,0,0,1-4.22-6.18L15.45,98.06a4.52,4.52,0,0,1,4.23-2.89H38.52V99.7H27.19A2.28,2.28,0,0,0,25,101.25l-6.8,20.4a2.27,2.27,0,0,0,2.15,3h95.18a2.27,2.27,0,0,0,2.15-3l-6.8-20.4a2.28,2.28,0,0,0-2.15-1.55H97.44V95.17Zm12.88-20.39a4.54,4.54,0,1,1,4.53-4.53A4.53,4.53,0,0,1,129.16,74.78Z"/></g></g></svg>