<svg xmlns="http://www.w3.org/2000/svg" viewBox="0 0 125.47 124.8"><g id="Layer_2" data-name="Layer 2"><g id="Layer_1-2" data-name="Layer 1"><path d="M114.91,45.87A55.15,55.15,0,0,0,80.7,10.47l1.49-3.74L76.08,8A10.43,10.43,0,0,1,65.73,4l-3-4-3,4A10.43,10.43,0,0,1,49.39,8l-6.1-1.22,1.49,3.74a54.47,54.47,0,0,0-34.11,35A18.33,18.33,0,0,0,.15,59.68,18.13,18.13,0,0,0,8.42,77.41a4,4,0,0,1,1.7,3.37v3.54a8.08,8.08,0,0,0,7.14,8,55.24,55.24,0,0,0,15.12,15.16v13.27H8.1v4H117.38v-4H89.05V109.94A54.83,54.83,0,0,0,109.43,90.4h12V86.35h-4.05v-4h8.09V45.87Zm6.52,16.19h-8.1V49.92h8.1ZM101.19,78.25V66.11h8.09V78.25ZM89.05,66.11h8.09V78.25H89.05Zm0-4V49.92h8.09V62.06Zm12.14,0V49.92h8.09V62.06Zm-51.79-50A14.58,14.58,0,0,0,62.74,6.74a14.53,14.53,0,0,0,13.33,5.32,14.38,14.38,0,0,0,5.22,13.56A14.43,14.43,0,0,0,75.8,38.91a14.39,14.39,0,0,0-13.07,5.62,14.5,14.5,0,0,0-11.34-5.45,13.41,13.41,0,0,0-2,.14,14.36,14.36,0,0,0-5.24-13.58A14.36,14.36,0,0,0,49.4,12.06ZM10.6,74a14.16,14.16,0,0,1,6-26,16,16,0,0,1,1.68-.09A14.16,14.16,0,0,1,25.86,74a7.9,7.9,0,0,0-3.57,6.3H20.24V67.76a6.08,6.08,0,1,0-4,0V80.28H14.14A7.88,7.88,0,0,0,10.6,74Zm5.59-11.94a2,2,0,1,1,2,2,2,2,0,0,1-2-2Zm-2,22.26h8.09a4,4,0,1,1-8.09,0Zm58.69,4.05v9.27L64.76,96v24.73H56.67V92l-4.05.81V88.37ZM52.62,96.91v23.84H36.43v-20.6Zm16.19,23.84V101L85,104.2v16.55Zm20.24-15.48v-4.39L76.9,98.45V84.32h-4v-4h-4v4h-4V76.23H60.71v8.09h-4v-4H52.62v4h-4v9.27L32.38,96.83v5.69A51.53,51.53,0,0,1,21.67,91.61a8.08,8.08,0,0,0,4.64-7.29V80.7a4,4,0,0,1,1.74-3.32A18.21,18.21,0,0,0,16.1,44c-.22,0-.44.07-.65.1A50.38,50.38,0,0,1,45.52,14.49a10.33,10.33,0,0,1-5,8.78l-3.94,2.37,4,2.36a10.37,10.37,0,0,1,4.3,12.78l-1.5,3.76,6.1-1.22a10.45,10.45,0,0,1,10.35,4l3,4L65.92,47a10.35,10.35,0,0,1,10-4l5.69.93-1.21-3.27a10.4,10.4,0,0,1,4.39-12.54l4.16-2.49L85,23.27a10.32,10.32,0,0,1-5-8.77,51.08,51.08,0,0,1,30.71,31.37H85V82.3h8.09v4h-4V90.4h15.61a50.82,50.82,0,0,1-15.61,14.87Zm24.28-18.92H97.14v-4h16.19Zm0-8.1V66.11h8.1V78.25Z"/></g></g></svg>