<svg xmlns="http://www.w3.org/2000/svg" viewBox="0 0 162.84 162.84"><g id="Layer_2" data-name="Layer 2"><g id="Layer_1-2" data-name="Layer 1"><path d="M160.12,157.41H153.8c0-.07.1-.13.15-.2a14.78,14.78,0,0,0,1.9-13.37c-.78-4-8.57-15.73-.85-40,5.34-16.79,1.36-36.72-10.61-49C138.06,48.28,133,32.86,133,24.43v-8.9a5.39,5.39,0,0,0,2.71-4.67V8.14A8.14,8.14,0,0,0,127.53,0H111.25a8.14,8.14,0,0,0-8.14,8.14v2.72a5.39,5.39,0,0,0,2.71,4.67v8.9c0,8.41-5.11,23.83-11.46,30.35a44.21,44.21,0,0,0-9.18,14.27A61.36,61.36,0,0,0,57,62.42a64.77,64.77,0,0,0-11.71,1.1L38.69,55c6.31-6.24,6.66-13.6,3.41-17.8S31.63,31.43,24,35.93l-1.77-2.3A2.71,2.71,0,1,0,18,36.94l1.77,2.3c-6.33,6.24-6.64,13.61-3.42,17.81s10.54,5.69,18.09,1.24l5.09,6.6C19.65,70.56,5.43,85.54,5.43,103.13a28.64,28.64,0,0,0,.2,3.58,8.16,8.16,0,0,0,5.23,6.75v6a10.83,10.83,0,0,0-2.72,21.32v5.82a16.19,16.19,0,0,0,4.18,10.85H2.71a2.72,2.72,0,0,0,0,5.43H160.12a2.72,2.72,0,1,0,0-5.43ZM20.6,53.74c-2.17-2.83-.17-7.29,2.47-10.15l1.5,1.95A2.72,2.72,0,0,0,29.28,45a2.72,2.72,0,0,0-.41-2.73l-1.5-1.95c3.28-1.74,8.2-2.69,10.44.21,2.69,3.5-.91,9.25-4.46,12S23.28,57.22,20.6,53.74Zm129.23,48.44a71.34,71.34,0,0,0-3.58,20.12H92.51v-.07s0-.06,0-.1,0-.1,0-.16a71.34,71.34,0,0,0-3.57-19.79,46.21,46.21,0,0,1,.42-28.9h60.07a46.11,46.11,0,0,1,.42,28.89ZM85.55,135.7H52.69l10.85-10.86H87.07a48,48,0,0,1-1.52,10.86Zm23-127.56a2.71,2.71,0,0,1,2.72-2.71h16.28a2.71,2.71,0,0,1,2.72,2.71v2.72H108.53Zm2.72,16.29V16.28h16.28v8.15A61.88,61.88,0,0,0,134,48.85H104.76a61.88,61.88,0,0,0,6.49-24.42Zm-13,34.13a30.44,30.44,0,0,0,3.38-4.28h35.49a29.8,29.8,0,0,0,3.39,4.28,38.68,38.68,0,0,1,6.59,9.29H91.65a38.17,38.17,0,0,1,6.6-9.29ZM43,69.51l6.38,8.28a2.71,2.71,0,0,0,4.29-3.32L49,68.41a60.46,60.46,0,0,1,8-.56,55.68,55.68,0,0,1,26.37,6.39,51.81,51.81,0,0,0,.38,29.58c.52,1.61,1,3.19,1.36,4.73H13.73A2.72,2.72,0,0,1,11,106.07a22.19,22.19,0,0,1-.16-2.94C10.86,87.39,24.4,74,43,69.51ZM16.28,114h70c.32,1.85.54,3.65.67,5.43H62.42a2.63,2.63,0,0,0-1.84.72l-.07.06L40.85,139.86l-17.1-19.54a2.69,2.69,0,0,0-2-.9H16.28ZM5.43,130.27a5.43,5.43,0,0,1,5.43-5.43h9.62L30,135.7H10.86a5.43,5.43,0,0,1-5.43-5.43Zm8.14,16.29v-5.43H34.74l2,2.32a5.41,5.41,0,0,0,3.9,1.84h.18a5.43,5.43,0,0,0,3.84-1.59l2.57-2.57H83.82l-.93,2.71a14.78,14.78,0,0,0,1.9,13.37l.16.2H24.43a10.86,10.86,0,0,1-10.86-10.85ZM95.5,157.41a7.67,7.67,0,0,1-6.28-3.35A9.35,9.35,0,0,1,88,145.6a69.74,69.74,0,0,0,4.34-17.88h54a66.41,66.41,0,0,0,4.34,17.88,9.37,9.37,0,0,1-1.18,8.46,7.69,7.69,0,0,1-6.29,3.35Z"/><path d="M100.39,146.56a2.72,2.72,0,1,1-2.71-2.72,2.71,2.71,0,0,1,2.71,2.72Z"/><path d="M105.82,135.7a2.72,2.72,0,1,1-2.71-2.71,2.71,2.71,0,0,1,2.71,2.71Z"/><path d="M111.25,146.56a2.72,2.72,0,1,1-2.72-2.72,2.72,2.72,0,0,1,2.72,2.72Z"/><path d="M119.39,78.71a19,19,0,1,0,19,19,19,19,0,0,0-19-19Zm0,32.56A13.57,13.57,0,1,1,133,97.7a13.57,13.57,0,0,1-13.57,13.57Z"/><path d="M53.21,48.22,52,50.08a2.71,2.71,0,1,0,4.54,3l1.23-1.9c.79-1.24,1.58-2.46,2.41-3.66a12.43,12.43,0,0,0,1.64-11.72,14.42,14.42,0,0,0-1.9-3.24,8.8,8.8,0,0,1-1.35-2.29c-.87-2.82.33-5.09,2.84-8.29l3.13-4a2.71,2.71,0,1,0-4.27-3.35l-3.12,4c-2.72,3.47-5.49,7.64-3.77,13.24a13.38,13.38,0,0,0,2.13,3.86,10.26,10.26,0,0,1,1.26,2,7.13,7.13,0,0,1-1.06,6.66c-.86,1.24-1.68,2.52-2.51,3.81Z"/><path d="M77.64,48.22l-1.21,1.86a2.72,2.72,0,0,0-.17,2.73,2.7,2.7,0,0,0,2.29,1.5A2.72,2.72,0,0,0,81,53.05l1.23-1.9c.79-1.24,1.58-2.46,2.4-3.66a12.4,12.4,0,0,0,1.65-11.72,14.42,14.42,0,0,0-1.9-3.24A8.56,8.56,0,0,1,83,30.24c-.86-2.82.33-5.09,2.85-8.29L89,18a2.71,2.71,0,1,0-4.27-3.35l-3.13,4c-2.71,3.47-5.49,7.64-3.77,13.24a13.38,13.38,0,0,0,2.13,3.86,10.79,10.79,0,0,1,1.27,2,7.16,7.16,0,0,1-1.06,6.66c-.86,1.24-1.68,2.52-2.51,3.81Z"/><path d="M29.85,86.85a2.71,2.71,0,1,1-2.71-2.72,2.71,2.71,0,0,1,2.71,2.72Z"/><path d="M40.71,78.71A2.72,2.72,0,1,1,38,76a2.72,2.72,0,0,1,2.71,2.72Z"/><path d="M67.85,76a2.72,2.72,0,1,1-2.71-2.71A2.72,2.72,0,0,1,67.85,76Z"/><path d="M21.71,100.42A2.72,2.72,0,1,1,19,97.7a2.71,2.71,0,0,1,2.71,2.72Z"/><path d="M35.28,97.7A2.72,2.72,0,1,1,32.57,95a2.71,2.71,0,0,1,2.71,2.71Z"/><path d="M46.14,89.56a2.72,2.72,0,1,1-2.72-2.71,2.72,2.72,0,0,1,2.72,2.71Z"/></g></g></svg>