<svg xmlns="http://www.w3.org/2000/svg" viewBox="0 0 128.56 129.17"><g id="Layer_2" data-name="Layer 2"><g id="Layer_1-2" data-name="Layer 1"><path d="M77.24,23.33H70.76V16.85a2.16,2.16,0,0,0-2.16-2.16H60a2.16,2.16,0,0,0-2.16,2.16v6.48H51.32a2.16,2.16,0,0,0-2.16,2.16v8.64a2.16,2.16,0,0,0,2.16,2.16H57.8v6.48A2.16,2.16,0,0,0,60,44.93H68.6a2.16,2.16,0,0,0,2.16-2.16V36.29h6.48a2.16,2.16,0,0,0,2.16-2.16V25.49a2.16,2.16,0,0,0-2.16-2.16ZM75.08,32H68.6a2.16,2.16,0,0,0-2.16,2.16v6.48H62.12V34.13A2.16,2.16,0,0,0,60,32H53.48V27.65H60a2.16,2.16,0,0,0,2.16-2.16V19h4.32v6.48a2.16,2.16,0,0,0,2.16,2.16h6.48Z"/><path d="M124.18,34.91a10.93,10.93,0,0,0,.06-1.15,8.67,8.67,0,0,0-6.87-8.44,8.79,8.79,0,0,0-10.15,6.41l-9.5,27.35a3,3,0,0,0-.41.19L78.21,70.46A19.48,19.48,0,0,0,68.6,87.22v20.35a2.16,2.16,0,0,0-2.16,2.16V127a2.16,2.16,0,0,0,2.16,2.16H98.84A2.16,2.16,0,0,0,101,127V109.73a2.16,2.16,0,0,0-2.16-2.16v-4.75A6.56,6.56,0,0,1,101,98l14.6-13a10.62,10.62,0,0,0,3.28-5.29l9.38-35.06a8.53,8.53,0,0,0,.3-2.25,8.68,8.68,0,0,0-4.38-7.49ZM111.34,33a4.57,4.57,0,0,1,5.15-3.46,4.32,4.32,0,0,1,3.43,4.21v.05a8.84,8.84,0,0,0-8.4,6.61l-6,18.59a9.11,9.11,0,0,0-2.89-.82ZM96.68,124.85H70.76v-13H96.68Zm27.41-81.32-9.4,35.07a6.44,6.44,0,0,1-1.94,3.16l-14.62,13a10.92,10.92,0,0,0-3.61,8.08v4.75H72.92V87.22a15.22,15.22,0,0,1,7.47-13L99.47,63a4.31,4.31,0,0,1,5.91,1.58,4.46,4.46,0,0,1,.44,3.28,4.31,4.31,0,0,1-2,2.61L91.41,77.63a2.16,2.16,0,0,0,2.16,3.74l12.37-7.15A8.56,8.56,0,0,0,110,69a8.69,8.69,0,0,0-.87-6.54l-.13-.2,6.67-20.58a4.57,4.57,0,0,1,5.15-3.46,4.32,4.32,0,0,1,3.43,4.21,3.62,3.62,0,0,1-.15,1.13Z"/><path d="M60,107.57V87.22a19.48,19.48,0,0,0-9.61-16.76L31.25,59.25l-.41-.17L21.4,31.88a8.86,8.86,0,0,0-10.21-6.56,8.67,8.67,0,0,0-6.87,8.44,10.93,10.93,0,0,0,.06,1.15A8.68,8.68,0,0,0,0,42.4a9.43,9.43,0,0,0,.28,2.25l9.4,35A10.59,10.59,0,0,0,13,85L27.54,98a6.53,6.53,0,0,1,2.18,4.84v4.75a2.16,2.16,0,0,0-2.16,2.16V127a2.16,2.16,0,0,0,2.16,2.16H60A2.16,2.16,0,0,0,62.12,127V109.73A2.16,2.16,0,0,0,60,107.57ZM8.64,33.76a4.33,4.33,0,0,1,3.41-4.21,4.67,4.67,0,0,1,5.23,3.61l8.68,25a9.11,9.11,0,0,0-2.89.82l-6-18.49a9,9,0,0,0-8.44-6.71Zm21.77,61-14.6-13a6.38,6.38,0,0,1-1.94-3.18l-9.42-35a4.78,4.78,0,0,1-.13-1.13,4.33,4.33,0,0,1,3.41-4.21,4.64,4.64,0,0,1,5.21,3.57l6.63,20.47-.13.2A8.69,8.69,0,0,0,18.57,69a8.56,8.56,0,0,0,4.05,5.25L35,81.37a2.16,2.16,0,0,0,2.16-3.74L24.78,70.48a4.31,4.31,0,0,1-2-2.61,4.46,4.46,0,0,1,.44-3.28A4.31,4.31,0,0,1,29.07,63l19.1,11.19a15.22,15.22,0,0,1,7.47,13v20.35H34v-4.75a10.87,10.87,0,0,0-3.63-8.08ZM57.8,124.85H31.88v-13H57.8Z"/><path d="M94.84,6.34a21.58,21.58,0,0,0-30.56,0A21.6,21.6,0,0,0,33.73,36.87l29,29a2.16,2.16,0,0,0,3.05,0l29-29a21.61,21.61,0,0,0,0-30.53Zm-30.56,55L36.78,33.81A17.27,17.27,0,1,1,61.22,9.39l1.53,1.54a2.17,2.17,0,0,0,3.06,0l1.54-1.54A17.27,17.27,0,0,1,91.78,33.81Z"/></g></g></svg>