<?xml version="1.0" encoding="utf-8"?>
<!-- Generator: Adobe Illustrator 25.0.0, SVG Export Plug-In . SVG Version: 6.00 Build 0)  -->
<svg version="1.1" id="Layer_1" xmlns="http://www.w3.org/2000/svg" xmlns:xlink="http://www.w3.org/1999/xlink" x="0px" y="0px"
	 viewBox="0 0 24 24" style="enable-background:new 0 0 24 24;" xml:space="preserve">
<style type="text/css">
	.st0{fill:none;stroke:#1D1D1B;stroke-miterlimit:10;}
	.st1{fill:#EDEDED;}
</style>
<g>
	<circle class="st0" cx="12.13" cy="12" r="11.5"/>
	<g>
		<path class="st1" d="M4.67,18.99c0.27,0,0.54,0,0.83,0c0.07-0.96,0.14-1.91,0.22-2.88c0.13,0.01,0.26,0.02,0.41,0.03
			c-0.07,0.96-0.14,1.9-0.21,2.84c0.81,0,1.6,0,2.42,0c-0.15-2.04-0.31-4.08-0.46-6.12c-0.5,0-0.99,0-1.5,0
			c-0.07,0.95-0.14,1.9-0.22,2.87c-0.13-0.01-0.26-0.02-0.4-0.02c0.09-2.05,0.39-4.07,0.34-6.12c-0.13,0-0.26,0-0.4,0
			c0-0.14,0-0.27,0-0.41c0.27,0,0.53,0,0.81,0c0-0.13,0.01-0.25-0.01-0.37C6.5,8.76,6.44,8.71,6.39,8.7C5.8,8.49,5.52,7.83,5.8,7.28
			c0.13-0.27,0.34-0.44,0.63-0.53C6.49,6.73,6.52,6.7,6.53,6.63c0.14-0.73,0.71-1.2,1.45-1.2c1.19,0,2.38,0,3.57,0
			c0.59,0,1.04,0.25,1.33,0.76c0.01,0.02,0.02,0.03,0.03,0.04c0.82-0.26,1.1-0.24,1.8,0.1c0.45-0.59,1.04-0.91,1.79-0.91
			c0.49,0,0.92,0.16,1.32,0.48c-0.09,0.11-0.17,0.21-0.25,0.32c-0.47-0.36-0.99-0.48-1.56-0.32c-0.56,0.15-0.94,0.53-1.18,1.06
			c-0.69-0.64-1.4-0.67-2.15-0.08c-0.02-0.08-0.04-0.14-0.06-0.2c-0.15-0.56-0.51-0.84-1.1-0.84c-1.17,0-2.34,0.01-3.51-0.01
			C7.38,5.82,6.86,6.32,6.93,6.99c0,0.04,0,0.07,0,0.13c-0.09,0-0.18,0-0.26,0c-0.27,0.02-0.51,0.23-0.55,0.5
			c-0.05,0.3,0.1,0.56,0.39,0.67c0-0.12,0-0.23,0-0.35c0.15,0,0.27,0,0.41,0c0,0.4,0,0.8,0,1.21c0.14,0,0.27,0,0.41,0
			c0-0.58,0-1.15,0-1.74c0.14,0,0.26,0,0.41,0c0,0.12,0,0.23,0,0.37c0.28-0.05,0.48-0.17,0.64-0.37c0.16-0.2,0.19-0.45,0.19-0.7
			c0.61,0,1.21,0,1.82,0c0,0.13,0,0.25,0,0.39c-0.2,0.02-0.38,0.09-0.49,0.27C9.84,7.47,9.8,7.6,9.79,7.72
			c-0.02,0.26,0.14,0.48,0.4,0.57c0-0.12,0-0.23,0-0.35c0.15,0,0.27,0,0.41,0c0,0.4,0,0.8,0,1.21c0.14,0,0.27,0,0.41,0
			c0-0.54,0-1.07,0-1.62c0.14,0,0.27,0,0.41,0c0,0.08,0,0.16,0,0.23c-0.01,0.08,0.03,0.11,0.11,0.12c0.2,0.02,0.39-0.03,0.57-0.12
			c0.06-0.03,0.12-0.05,0.21-0.09c0,0.74,0.28,1.31,1,1.54c0.73,0.23,1.28-0.07,1.7-0.69c0.37,0.49,0.83,0.77,1.44,0.79
			c0.43,0.01,0.8-0.13,1.13-0.39c0.63-0.51,0.93-1.53,0.26-2.44c0.1-0.08,0.2-0.16,0.3-0.24c0.6,0.69,0.72,1.91-0.08,2.79
			c-0.75,0.83-2.08,0.98-3.04,0.14c-0.52,0.48-1.12,0.66-1.81,0.46c-0.68-0.2-1.09-0.67-1.27-1.34c-0.17,0.01-0.34,0.02-0.52,0.03
			c0,0.28,0,0.56,0,0.86c0.26,0,0.52,0,0.79,0c0,0.14,0,0.27,0,0.41c-0.13,0-0.25,0-0.39,0c-0.07,1.77,0.18,3.5,0.27,5.26
			c0.97-0.28,1.92-0.55,2.89-0.82c0,0.28,0,0.53,0,0.8c0.94-0.27,1.87-0.53,2.82-0.8c0,1.67,0,3.31,0,4.97c0.27,0,0.54,0,0.82,0
			c0,0.14,0,0.28,0,0.41c-4.66,0-9.31,0-13.97,0C4.67,19.26,4.67,19.12,4.67,18.99z M12.02,18.98c-0.15-2.05-0.31-4.09-0.46-6.12
			c-0.51,0-1,0-1.5,0C9.9,14.9,9.75,16.94,9.6,18.98C10.41,18.98,11.2,18.98,12.02,18.98z M9.5,14.89c0.09-1.78,0.35-3.53,0.28-5.32
			c-0.14,0-0.27,0-0.39,0c0-0.14,0-0.27,0-0.41c0.27,0,0.54,0,0.81,0c0-0.11,0-0.2,0-0.3c0.01-0.09-0.02-0.14-0.12-0.17
			C9.61,8.54,9.33,8.11,9.39,7.63c0.02-0.17,0.09-0.33,0.14-0.51c-0.15,0-0.31,0.01-0.48,0c-0.09,0-0.12,0.03-0.15,0.11
			c-0.14,0.46-0.44,0.76-0.9,0.91C7.93,8.17,7.8,8.17,7.76,8.23C7.71,8.3,7.74,8.43,7.74,8.52c0,0.21,0,0.42,0,0.65
			c0.28,0,0.54,0,0.81,0c0,0.14,0,0.27,0,0.41c-0.14,0-0.26,0-0.39,0c-0.06,1.79,0.19,3.54,0.28,5.31
			C8.8,14.89,9.14,14.89,9.5,14.89z M17.4,14.57c-0.03,0-0.05,0-0.07,0.01c-0.75,0.21-1.49,0.43-2.24,0.64
			C14.99,15.24,15,15.3,15,15.37c0,1.16,0,2.32,0,3.48c0,0.04,0,0.09,0.01,0.13c0.81,0,1.6,0,2.39,0
			C17.4,17.5,17.4,16.04,17.4,14.57z M14.59,14.57c-0.03,0.01-0.07,0.01-0.1,0.01c-0.75,0.21-1.5,0.43-2.25,0.64
			c-0.09,0.03-0.09,0.07-0.08,0.15c0.07,0.91,0.14,1.83,0.21,2.74c0.02,0.29,0.04,0.58,0.07,0.86c0.73,0,1.44,0,2.16,0
			C14.59,17.51,14.59,16.05,14.59,14.57z M9.19,18.98c0.09-1.23,0.18-2.45,0.27-3.67c-0.34,0-0.66,0-0.99,0
			c0.09,1.23,0.18,2.45,0.28,3.67C8.9,18.98,9.03,18.98,9.19,18.98z M6.41,12.43c0.49,0,0.95,0,1.44,0
			c-0.03-0.41-0.06-0.81-0.09-1.21c-0.42,0-0.84,0-1.26,0C6.47,11.63,6.44,12.03,6.41,12.43z M11.44,11.22c-0.43,0-0.84,0-1.26,0
			c-0.03,0.41-0.06,0.81-0.09,1.21c0.49,0,0.96,0,1.44,0C11.5,12.02,11.47,11.63,11.44,11.22z M7.73,10.8c0-0.41,0-0.81,0-1.21
			c-0.41,0-0.81,0-1.2,0c0,0.41,0,0.81,0,1.21C6.93,10.8,7.32,10.8,7.73,10.8z M10.2,10.79c0.4,0,0.8,0,1.21,0c0-0.41,0-0.81,0-1.21
			c-0.41,0-0.81,0-1.21,0C10.2,9.99,10.2,10.38,10.2,10.79z"/>
		<path class="st1" d="M13.77,11.59c0-0.7,0.55-1.27,1.25-1.3c0.68-0.03,1.26,0.49,1.33,1.18c0.01,0.08,0.03,0.11,0.11,0.13
			c0.49,0.14,0.81,0.59,0.76,1.07c-0.05,0.5-0.43,0.88-0.93,0.93c-0.42,0.05-0.85-0.2-1.02-0.6c-0.04-0.1-0.09-0.13-0.2-0.13
			C14.35,12.88,13.77,12.3,13.77,11.59z M15.56,12.35c0.01,0.1,0.01,0.17,0.02,0.25c0.02,0.35,0.29,0.61,0.63,0.6
			c0.34-0.01,0.61-0.29,0.6-0.63c-0.01-0.34-0.29-0.6-0.65-0.6c-0.08,0-0.17,0-0.24,0c0-0.21,0.02-0.41-0.01-0.6
			c-0.03-0.2-0.15-0.37-0.32-0.49c-0.17-0.13-0.35-0.19-0.56-0.18c-0.53,0.02-0.91,0.48-0.84,1.01c0.03,0.24,0.15,0.44,0.35,0.58
			C14.86,12.53,15.2,12.5,15.56,12.35z"/>
		<path class="st1" d="M16.91,6.77c0.13,0,0.25,0,0.39,0c0,0.13,0,0.26,0,0.4c-0.12,0-0.25,0-0.39,0
			C16.91,7.03,16.91,6.9,16.91,6.77z"/>
		<path class="st1" d="M16.17,18.57c-0.14,0-0.26,0-0.39,0c0-0.89,0-1.77,0-2.66c0.13,0,0.25,0,0.39,0
			C16.17,16.8,16.17,17.68,16.17,18.57z"/>
		<path class="st1" d="M16.99,18.57c-0.14,0-0.26,0-0.39,0c0-0.89,0-1.77,0-2.66c0.13,0,0.26,0,0.39,0
			C16.99,16.8,16.99,17.68,16.99,18.57z"/>
		<path class="st1" d="M13.36,18.57c-0.14,0-0.26,0-0.39,0c0-0.89,0-1.77,0-2.66c0.13,0,0.26,0,0.39,0
			C13.36,16.8,13.36,17.68,13.36,18.57z"/>
		<path class="st1" d="M14.18,18.57c-0.14,0-0.26,0-0.39,0c0-0.89,0-1.77,0-2.66c0.13,0,0.26,0,0.39,0
			C14.18,16.8,14.18,17.68,14.18,18.57z"/>
		<path class="st1" d="M7.32,10.39c-0.13,0-0.26,0-0.39,0c0-0.13,0-0.26,0-0.4c0.13,0,0.26,0,0.39,0
			C7.32,10.12,7.32,10.25,7.32,10.39z"/>
		<path class="st1" d="M10.61,10.38c0-0.13,0-0.25,0-0.39c0.13,0,0.26,0,0.39,0c0,0.13,0,0.25,0,0.39
			C10.87,10.38,10.75,10.38,10.61,10.38z"/>
	</g>
</g>
</svg>
