<svg xmlns="http://www.w3.org/2000/svg" xmlns:xlink="http://www.w3.org/1999/xlink" viewBox="0 0 133.3 135.37"><defs><style>.cls-1{fill:none;}.cls-2{clip-path:url(#clip-path);}.cls-3{fill:#fff;}</style><clipPath id="clip-path" transform="translate(-0.33 0)"><rect class="cls-1" width="133.96" height="135.37"/></clipPath></defs><g id="Layer_2" data-name="Layer 2"><g id="Layer_1-2" data-name="Layer 1"><g class="cls-2"><path class="cls-3" d="M132.45,93.13a5.15,5.15,0,0,0-4.51-1.89c-13.85,1.48-19.33,9-22.09,16a24.48,24.48,0,0,0-6.19-9.38,44.26,44.26,0,0,0,11-13.12,62.38,62.38,0,0,0,7.22-23.93,5.23,5.23,0,0,0-5.41-5.64c-15,.67-26.84,5.63-35,14.74a45,45,0,0,0-8.21,13.34V67.57C72,64.89,84,52.55,84.79,35.3c.57-11.79-4.19-23.19-14.16-33.88A4.5,4.5,0,0,0,64,1.57C60.29,5.49,53,16.76,51.4,26.57a40.63,40.63,0,0,0,.86,19.77c2.18,7.34,6.53,14.37,12.91,20.94V83.21A44.77,44.77,0,0,0,57,69.87c-8.19-9.11-20-14.07-35-14.74a5.23,5.23,0,0,0-5.41,5.64,65.51,65.51,0,0,0,3.52,15.82,47.54,47.54,0,0,0,14.46,21,24.44,24.44,0,0,0-6.4,9.56c-.11-.31-.24-.63-.37-1C25.15,100.1,19.29,92.5,6,91.24a5.22,5.22,0,0,0-5.63,6c1.06,7,5.68,22.91,25.7,23.91v12.24a2,2,0,1,0,4,0V121.09c13.31-.67,19.79-7.93,23-14.66a62.74,62.74,0,0,0,12.07,1.45v23.44H60a2,2,0,1,0,0,4.05H74a2,2,0,1,0,0-4.05H69.22V107.88a56.55,56.55,0,0,0,18.84-3.48l12.41,12.27A21,21,0,0,1,89,111.06,2,2,0,0,0,86.12,114c4.46,4.38,10.41,6.77,17.7,7.14v12.25a2,2,0,1,0,4.05,0V121.1c20-1,24.64-16.93,25.7-23.91a5.12,5.12,0,0,0-1.12-4.06Zm-5.52,2.31-18.69,18.48a27.35,27.35,0,0,1,1.72-6.1c3-7.08,8.68-11.24,17-12.38ZM95.34,96a39.17,39.17,0,0,1-7.67,4.19,50,50,0,0,1-15.37,3.48L90.42,85.53h15A39.18,39.18,0,0,1,95.34,96ZM85.86,67.65c6.58-4.87,15-7.68,25-8.38l-25,25.09Zm22,13.83H94.46l19.17-19.21a57.29,57.29,0,0,1-5.81,19.21ZM80.47,72.55c.43-.49.88-1,1.34-1.42V88.42L69.37,100.88C69.87,94.2,72,82,80.47,72.55ZM69.22,61.64V48.49l10.85-8C78.15,50,72.76,57.53,69.22,61.64ZM80.75,34.91,69.22,43.45V5.9c8.08,9.29,12,19,11.53,29ZM65.17,6.51V30.93l-8.61-8.17A55.38,55.38,0,0,1,65.17,6.51Zm-9.8,20.85a.5.5,0,0,0,0-.12l9.78,9.26V61.27C56.28,50.77,53,39.38,55.37,27.36ZM53.93,72.55C62.42,82,64.53,94.2,65,100.88l-22-22V64.26a36.73,36.73,0,0,1,10.9,8.29ZM23.49,59.27A54.19,54.19,0,0,1,39,62.49v12.3Zm-2.73,3L32.1,73.63H23.29a60.86,60.86,0,0,1-2.53-11.36Zm8.72,24a47.25,47.25,0,0,1-4.69-8.6H36.14l26,26c-13-.83-25.24-6.46-32.62-17.39Zm8.39,13.81a43.31,43.31,0,0,0,4.19,2.42L30.54,113.9c.67-4.09,2.5-9.8,7.33-13.81ZM24,107.7a26.69,26.69,0,0,1,1.77,6.22L7,95.44C15.27,96.58,21,100.7,24,107.7ZM4.86,99l17.89,17.7c-12-2-16.36-11-17.89-17.7Zm28.63,17.71L46,104.28c1,.38,2,.75,3.09,1.08-3.17,6.32-8.41,10.11-15.63,11.32Zm62.8-16.43c4.69,4,6.47,9.61,7.14,13.65L92.06,102.65a43,43,0,0,0,4.23-2.4Zm14.93,16.42L129.11,99c-1.53,6.75-5.86,15.66-17.89,17.7Z" transform="translate(-0.33 0)"/></g><path class="cls-3" d="M13.86,29.42,20.07,31a2,2,0,0,0,1-3.92l-6.22-1.61a2,2,0,1,0-1,3.91Z" transform="translate(-0.33 0)"/><g class="cls-2"><path class="cls-3" d="M20.67,14.16l5.24,3.71a2,2,0,1,0,2.35-3.3L23,10.86a2,2,0,1,0-2.34,3.3Z" transform="translate(-0.33 0)"/><path class="cls-3" d="M35.72,8.73a2,2,0,0,0,3.72-1.6l-2.53-5.9a2,2,0,1,0-3.72,1.59Z" transform="translate(-0.33 0)"/></g><path class="cls-3" d="M111.43,29.58A2,2,0,0,0,113.9,31l6.21-1.62a2,2,0,1,0-1-3.92l-6.22,1.62a2,2,0,0,0-1.45,2.46Z" transform="translate(-0.33 0)"/><g class="cls-2"><path class="cls-3" d="M106.89,18.25a2,2,0,0,0,1.16-.38l5.25-3.71a2,2,0,1,0-2.34-3.3l-5.25,3.71a2,2,0,0,0,1.18,3.68Z" transform="translate(-0.33 0)"/><path class="cls-3" d="M95.6,9.79a2,2,0,0,0,2.65-1.06l2.53-5.91a2,2,0,1,0-3.72-1.59l-2.53,5.9A2,2,0,0,0,95.6,9.79Z" transform="translate(-0.33 0)"/></g></g></g></svg>