<?xml version="1.0" encoding="utf-8"?>
<!-- Generator: Adobe Illustrator 25.0.0, SVG Export Plug-In . SVG Version: 6.00 Build 0)  -->
<svg version="1.1" id="Layer_1" xmlns="http://www.w3.org/2000/svg" xmlns:xlink="http://www.w3.org/1999/xlink" x="0px" y="0px"
	 viewBox="0 0 24 24" style="enable-background:new 0 0 24 24;" xml:space="preserve">
<style type="text/css">
	.st0{fill:#EDEDED;}
	.st1{fill:none;stroke:#1D1D1B;stroke-miterlimit:10;}
</style>
<g>
	<g>
		<g>
			<path class="st0" d="M4.82,5.67C5.16,5.61,5.49,5.55,5.83,5.5c0.04-0.01,0.09,0.03,0.12,0.07c0.4,0.42,0.8,0.85,1.2,1.28
				C7.21,6.9,7.26,6.92,7.34,6.91C9.12,6.6,10.9,6.29,12.68,6c0.72-0.12,1.45-0.22,2.18-0.3c0.27-0.03,0.56,0.02,0.83,0.03
				c0,0.01,0,0.03,0,0.04c-0.09,0.03-0.18,0.04-0.26,0.08c-0.37,0.16-0.56,0.54-0.47,0.95c0.08,0.37,0.43,0.63,0.82,0.61
				c0.13-0.01,0.26-0.03,0.39-0.05c0.48-0.08,0.97-0.16,1.45-0.24c0.05-0.01,0.09-0.02,0.14-0.02c0.05,0.38-0.22,0.78-0.59,0.91
				c-0.06,0.02-0.13,0.04-0.2,0.05c-1.24,0.21-2.48,0.42-3.72,0.62c-0.01,0-0.03,0-0.07,0c0.05-0.08,0.09-0.14,0.14-0.2
				c0.04-0.06,0.09-0.13,0.13-0.19c0.07-0.1,0.08-0.2,0.01-0.31c-0.06-0.11-0.16-0.13-0.27-0.12c-0.38,0.05-0.76,0.11-1.14,0.17
				c-0.58,0.1-1.16,0.21-1.74,0.3c-0.16,0.03-0.26,0.1-0.33,0.25c-0.09,0.2-0.18,0.41-0.27,0.61c-0.02,0.04-0.06,0.09-0.1,0.1
				C9.11,9.37,8.6,9.48,8.09,9.53C7.18,9.62,6.32,9.11,5.95,8.27C5.56,7.43,5.2,6.57,4.83,5.72C4.82,5.71,4.82,5.7,4.82,5.67z
				 M9.28,7.57C9.27,7.49,9.26,7.44,9.24,7.39C9.2,7.25,9.07,7.17,8.94,7.19C8.8,7.21,8.7,7.33,8.71,7.48
				C8.72,7.6,8.75,7.72,8.78,7.84c0.04,0.12,0.16,0.18,0.29,0.16C9.2,7.97,9.29,7.88,9.29,7.75C9.3,7.68,9.29,7.62,9.28,7.57z
				 M12.51,7.01c-0.01-0.06-0.02-0.12-0.05-0.18c-0.05-0.13-0.18-0.2-0.31-0.17c-0.12,0.03-0.22,0.13-0.21,0.27
				c0.01,0.12,0.03,0.25,0.06,0.36c0.04,0.13,0.16,0.19,0.29,0.17c0.14-0.02,0.23-0.12,0.23-0.26C12.53,7.13,12.52,7.07,12.51,7.01z
				 M8.19,7.73C8.18,7.68,8.18,7.62,8.17,7.57c-0.04-0.13-0.17-0.22-0.31-0.2c-0.14,0.02-0.24,0.15-0.22,0.3
				c0.01,0.1,0.03,0.2,0.05,0.3c0.03,0.14,0.15,0.22,0.29,0.21c0.14-0.02,0.25-0.14,0.24-0.28C8.22,7.84,8.2,7.79,8.19,7.73z
				 M10.35,7.38c-0.01-0.05-0.01-0.11-0.03-0.16c-0.04-0.14-0.16-0.22-0.3-0.2C9.88,7.03,9.78,7.15,9.79,7.29
				C9.8,7.4,9.82,7.52,9.85,7.63c0.04,0.14,0.17,0.21,0.31,0.19c0.14-0.03,0.23-0.14,0.22-0.29C10.37,7.48,10.36,7.43,10.35,7.38z
				 M10.89,7.27c0.01,0.05,0.01,0.11,0.03,0.16c0.04,0.14,0.15,0.22,0.29,0.2c0.14-0.02,0.25-0.14,0.24-0.28
				c-0.01-0.11-0.03-0.22-0.06-0.33c-0.04-0.14-0.17-0.22-0.31-0.19c-0.14,0.02-0.23,0.15-0.22,0.3
				C10.87,7.17,10.88,7.22,10.89,7.27z M13.58,6.83C13.58,6.83,13.58,6.83,13.58,6.83c-0.01-0.05-0.01-0.1-0.03-0.15
				c-0.04-0.14-0.16-0.23-0.3-0.21c-0.14,0.02-0.24,0.15-0.23,0.29c0.01,0.11,0.03,0.21,0.05,0.32c0.04,0.14,0.17,0.22,0.32,0.19
				c0.14-0.03,0.23-0.14,0.21-0.29C13.6,6.93,13.59,6.88,13.58,6.83z"/>
			<path class="st0" d="M12.64,8.51c-0.04,0.06-0.06,0.09-0.08,0.13c-0.69,0.97-1.39,1.94-2.08,2.92c-0.05,0.08-0.11,0.11-0.21,0.13
				c-0.37,0.06-0.74,0.12-1.13,0.19c0.02-0.05,0.03-0.09,0.05-0.13c0.42-0.92,0.84-1.85,1.26-2.77c0.02-0.05,0.07-0.1,0.12-0.11
				C11.24,8.74,11.92,8.63,12.64,8.51z"/>
			<path class="st0" d="M11.1,5.99C11.04,6,11,6.01,10.96,6.02c-0.51,0.09-1.03,0.17-1.54,0.26c-0.09,0.02-0.14,0-0.2-0.07
				C8.83,5.8,8.45,5.38,8.06,4.97C8.03,4.94,8.01,4.91,7.96,4.86c0.28-0.05,0.55-0.07,0.8-0.14C9.09,4.63,9.35,4.7,9.61,4.91
				c0.44,0.35,0.91,0.65,1.36,0.98C11.01,5.92,11.05,5.95,11.1,5.99z"/>
			<path class="st0" d="M17.58,6.57c-0.24,0.04-0.44,0.07-0.65,0.11c-0.37,0.06-0.74,0.12-1.11,0.19c-0.13,0.02-0.23-0.02-0.29-0.13
				c-0.06-0.1-0.05-0.21,0.02-0.3c0.04-0.05,0.11-0.09,0.17-0.1c0.38-0.07,0.76-0.13,1.15-0.2c0.02,0,0.05,0,0.07,0
				C17.18,6.23,17.38,6.37,17.58,6.57z"/>
			<path class="st0" d="M11.65,10.88c0.27-0.38,0.53-0.75,0.8-1.12c0.21,0.1,0.32,0.3,0.3,0.54c-0.02,0.23-0.18,0.42-0.41,0.47
				C12.11,10.81,11.88,10.85,11.65,10.88z"/>
		</g>
		<g>
			<path class="st0" d="M18.66,19.25c-0.04,0.03-0.08,0.07-0.13,0.1c-0.26,0.13-0.52,0.27-0.78,0.4c-0.17,0.09-0.25,0.04-0.25-0.16
				c0-0.29,0-0.57,0-0.86c0-0.08-0.03-0.12-0.1-0.16c-0.43-0.22-0.43-0.22-0.85,0.01c-0.06,0.03-0.08,0.07-0.08,0.14
				c0,0.29,0,0.58,0,0.87c0,0.18-0.08,0.24-0.24,0.15c-0.21-0.1-0.41-0.21-0.62-0.32c0.04-0.08,0.07-0.15,0.12-0.22
				c0.16,0.08,0.32,0.16,0.49,0.25c0-0.23,0.02-0.45,0-0.67c-0.03-0.24,0.06-0.39,0.29-0.47c0.13-0.05,0.25-0.14,0.38-0.19
				c0.06-0.02,0.15-0.03,0.21,0c0.19,0.08,0.37,0.18,0.55,0.28c0.08,0.04,0.12,0.1,0.12,0.19c0,0.28,0,0.55,0,0.85
				c0.22-0.11,0.41-0.21,0.61-0.31c0.02-0.01,0.03-0.07,0.03-0.1c0-0.42,0-0.83,0-1.25c0-0.05-0.04-0.11-0.08-0.13
				c-0.22-0.12-0.45-0.24-0.67-0.35c-0.1-0.05-0.14-0.11-0.14-0.22c0-1.55,0-3.1,0-4.65c0-0.1,0.04-0.17,0.13-0.21
				c0.23-0.11,0.46-0.23,0.69-0.35c0.04-0.02,0.08-0.09,0.08-0.13c0.01-0.42,0-0.83,0-1.25c0-0.04-0.02-0.09-0.05-0.1
				c-0.19-0.1-0.38-0.2-0.59-0.31c0,0.17,0,0.32,0,0.47c0,0.13,0,0.26,0,0.39c0,0.09-0.03,0.15-0.11,0.18
				c-0.19,0.09-0.37,0.2-0.56,0.28c-0.06,0.03-0.14,0.02-0.2,0c-0.19-0.08-0.37-0.19-0.55-0.28c-0.09-0.04-0.12-0.11-0.12-0.2
				c0-0.27,0-0.55,0-0.84c-0.22,0.11-0.42,0.21-0.61,0.31c-0.02,0.01-0.03,0.07-0.03,0.1c0,0.42,0,0.83,0,1.25
				c0,0.07,0.03,0.1,0.09,0.13c0.23,0.11,0.45,0.23,0.68,0.34c0.1,0.05,0.14,0.11,0.14,0.22c0,1.55,0,3.11,0,4.66
				c0,0.1-0.04,0.16-0.13,0.2c-0.22,0.11-0.44,0.23-0.67,0.33c-0.09,0.04-0.12,0.09-0.11,0.19c0.01,0.05,0.01,0.11,0,0.17
				c0,0.04-0.02,0.09-0.04,0.1c-0.18,0.06-0.16,0.24-0.26,0.38c0.08,0.07,0.16,0.14,0.23,0.21c0.07,0.07,0.07,0.14,0,0.21
				c-0.17,0.17-0.34,0.34-0.51,0.51c-0.08,0.08-0.16,0.08-0.22,0c-0.15-0.22-0.32-0.22-0.54-0.05c0,0.08,0,0.18,0,0.28
				c0,0.1-0.05,0.16-0.16,0.16c-0.24,0-0.48,0-0.72,0c-0.1,0-0.15-0.05-0.15-0.15c0-0.01,0-0.03,0-0.04
				c0.03-0.19-0.02-0.32-0.23-0.37c-0.08-0.02-0.12-0.02-0.17,0.04c-0.25,0.27-0.25,0.25-0.5,0c-0.14-0.14-0.26-0.34-0.43-0.41
				c-0.18-0.07-0.4-0.02-0.61-0.02c-0.3,0-0.61,0-0.91,0c-0.04,0-0.1,0.03-0.13,0.07c-0.72,1.17-2.31,1.17-3.04,0
				c-0.02-0.04-0.08-0.07-0.13-0.07c-0.46,0-0.92,0-1.38,0c-0.15,0-0.19-0.04-0.19-0.19c0-0.41,0-0.81,0-1.22
				c0-0.15,0.04-0.18,0.18-0.18c0.09,0,0.18,0,0.28,0c0-0.3,0.02-0.59,0-0.88c-0.02-0.23,0.07-0.39,0.23-0.55
				c0.83-0.83,1.83-1.25,3-1.25c0.37,0,0.74,0,1.11,0c0.09,0,0.14-0.03,0.19-0.1c0.32-0.39,0.62-0.79,0.97-1.15
				c1.04-1.06,2.31-1.61,3.79-1.69c0.02,0,0.05,0,0.09-0.01c0-0.22,0-0.43,0-0.64c0-0.2,0-0.39,0-0.59c0-0.09,0.03-0.14,0.11-0.18
				c0.28-0.14,0.55-0.28,0.82-0.42c0.14-0.07,0.22-0.02,0.22,0.14c0,0.3,0,0.59,0,0.89c0,0.07,0.02,0.11,0.09,0.15
				c0.43,0.22,0.43,0.22,0.85,0c0.07-0.03,0.09-0.07,0.09-0.15c0-0.29,0-0.58,0-0.87c0-0.18,0.08-0.23,0.24-0.15
				c0.3,0.16,0.61,0.31,0.91,0.47c0,0.57,0,1.15,0,1.72c-0.27,0.14-0.54,0.29-0.82,0.43c-0.06,0.03-0.09,0.06-0.09,0.14
				c0,1.48,0,2.96,0,4.44c0,0.07,0.02,0.11,0.09,0.14c0.23,0.11,0.45,0.23,0.67,0.34c0.05,0.03,0.09,0.07,0.14,0.11
				C18.66,18.14,18.66,18.69,18.66,19.25z M15.31,11.89c-0.03,0-0.04,0-0.06,0c-0.03,0-0.07,0-0.1,0c-1.35,0.09-2.53,0.59-3.49,1.56
				c-0.38,0.39-0.71,0.83-1.06,1.26c-0.07,0.08-0.13,0.12-0.24,0.12c-0.4-0.01-0.8,0-1.2,0c-0.42,0-0.84,0.06-1.24,0.19
				c-0.27,0.09-0.53,0.2-0.78,0.36c0.15,0,0.29,0,0.42,0c0.14,0,0.18,0.05,0.17,0.19c-0.02,0.31-0.25,0.58-0.55,0.65
				c-0.09,0.02-0.19,0.03-0.28,0.03c-0.23,0-0.47,0-0.7,0c0,0.35,0,0.67,0,1c0.28,0,0.56,0,0.83,0c0.07,0,0.1-0.02,0.14-0.08
				c0.71-1.17,2.32-1.17,3.03,0c0.04,0.06,0.08,0.08,0.14,0.08c0.34,0,0.69,0,1.03,0c0.08,0,0.17,0.03,0.21-0.09
				c0.01-0.02,0.07-0.04,0.11-0.04c0.08-0.01,0.15,0,0.23,0c0.03,0,0.08-0.02,0.09-0.05c0.04-0.09,0.08-0.19,0.12-0.29
				c-0.07-0.07-0.14-0.13-0.21-0.19c-0.08-0.08-0.08-0.15,0-0.23c0.17-0.17,0.33-0.33,0.5-0.5c0.08-0.08,0.16-0.08,0.23,0.01
				c0.07,0.07,0.13,0.15,0.18,0.21c0.13-0.06,0.24-0.1,0.35-0.15c0-0.1,0-0.2,0-0.3c0-0.1,0.05-0.15,0.15-0.15c0.24,0,0.48,0,0.72,0
				c0.11,0,0.16,0.05,0.16,0.16c0,0.1,0,0.2,0,0.3c0.12,0.05,0.22,0.09,0.35,0.14c0.06-0.07,0.12-0.14,0.19-0.21
				c0.08-0.08,0.15-0.08,0.23,0c0.17,0.17,0.33,0.33,0.5,0.5c0.08,0.08,0.08,0.16-0.01,0.23c-0.07,0.07-0.15,0.13-0.22,0.19
				c0.03,0.06,0.04,0.08,0.05,0.1c0.04,0.21,0.17,0.28,0.38,0.25c0.06-0.01,0.14,0.05,0.21,0.08c0.04,0.01,0.1-0.02,0.15-0.04
				c0.12-0.04,0.16-0.12,0.16-0.25c-0.01-1.41,0-2.82,0-4.23c0-0.05,0-0.09,0-0.14c-0.42,0-0.82-0.01-1.23,0
				c-0.93,0.02-1.75,0.33-2.45,0.94c-0.14,0.12-0.26,0.26-0.39,0.39c0.1,0.03,0.19,0.03,0.27,0.03c0.41-0.04,0.65,0.32,0.53,0.64
				c0,0,0.01,0.01,0.01,0.03c0.95,0,1.91,0,2.87,0c0,0.09,0,0.16,0,0.25c-0.04,0-0.08,0-0.12,0c-1.29,0-2.59,0-3.88,0
				c-0.16,0-0.33,0-0.49,0c-0.11,0-0.16-0.05-0.16-0.16c0-0.1,0-0.2,0-0.3c0.01-0.27,0.2-0.47,0.47-0.47c0.11,0,0.18-0.04,0.25-0.12
				c0.85-1.01,1.94-1.51,3.26-1.51c0.22,0,0.43,0,0.65,0c-0.09-0.07-0.18-0.12-0.27-0.17C15.44,12.06,15.32,12.03,15.31,11.89z
				 M14.87,16.09c-0.06,0.07-0.11,0.15-0.18,0.2c-0.05,0.03-0.13,0.05-0.19,0.03c-0.14-0.04-0.27-0.1-0.4-0.17
				c-0.05-0.03-0.1-0.09-0.11-0.15c-0.02-0.09,0-0.18,0-0.28c-0.18,0-0.34,0-0.51,0c0,0.09,0,0.18,0,0.26
				c0,0.09-0.04,0.14-0.12,0.17c-0.13,0.05-0.26,0.1-0.38,0.16c-0.09,0.04-0.16,0.04-0.22-0.03c-0.06-0.06-0.11-0.13-0.15-0.18
				c-0.14,0.14-0.26,0.25-0.4,0.38c0.05,0.05,0.1,0.1,0.16,0.14c0.09,0.08,0.1,0.16,0.04,0.26c-0.06,0.1-0.11,0.22-0.14,0.33
				c-0.03,0.11-0.09,0.15-0.2,0.15c-0.08,0-0.15,0-0.23,0c0,0.18,0,0.34,0,0.51c0.09,0,0.17,0,0.25,0c0.1,0,0.15,0.04,0.18,0.14
				c0.04,0.12,0.09,0.24,0.15,0.35c0.04,0.09,0.05,0.16-0.03,0.23c-0.07,0.05-0.13,0.1-0.18,0.14c0.15,0.15,0.26,0.27,0.39,0.41
				c0.05-0.06,0.11-0.13,0.16-0.19c0.07-0.08,0.14-0.08,0.23-0.03c0.12,0.06,0.24,0.11,0.37,0.15c0.09,0.03,0.13,0.08,0.13,0.18
				c0,0.08,0,0.17,0,0.26c0.18,0,0.34,0,0.52,0c0-0.08,0-0.16,0-0.24c-0.01-0.11,0.04-0.17,0.15-0.2c0.12-0.04,0.23-0.09,0.34-0.14
				c0.09-0.05,0.17-0.05,0.24,0.04c0.05,0.06,0.1,0.13,0.14,0.18c0.15-0.14,0.26-0.25,0.41-0.39c-0.07-0.06-0.15-0.11-0.2-0.18
				c-0.03-0.04-0.06-0.13-0.04-0.16c0.13-0.17,0.1-0.42,0.29-0.56c0.01-0.01,0.01-0.03,0.01-0.05c-0.05-0.24,0.07-0.36,0.27-0.43
				c0,0,0-0.01,0-0.03c-0.07,0-0.15,0-0.22,0c-0.11,0.01-0.16-0.04-0.2-0.14c-0.04-0.13-0.1-0.25-0.15-0.37
				c-0.04-0.08-0.04-0.15,0.03-0.21c0.06-0.06,0.12-0.13,0.18-0.19C15.12,16.34,15,16.23,14.87,16.09z M8.71,19.53
				c0.82,0,1.49-0.67,1.49-1.49c0-0.82-0.67-1.5-1.5-1.5c-0.82,0-1.49,0.67-1.49,1.49C7.21,18.86,7.89,19.54,8.71,19.53z
				 M11.56,17.51c-0.38,0-0.74,0-1.1,0c0,0.36,0,0.71,0,1.07c0.14,0,0.26,0,0.39,0c0.37,0,0.74,0,1.11,0c0.15,0,0.19-0.08,0.15-0.22
				c-0.05-0.2-0.16-0.26-0.35-0.22c-0.01,0-0.03,0-0.04,0c-0.11,0-0.16-0.05-0.16-0.17C11.56,17.82,11.56,17.67,11.56,17.51z
				 M5.75,17.51c0,0.36,0,0.71,0,1.07c0.4,0,0.8,0,1.19,0c0-0.36,0-0.71,0-1.07C6.55,17.51,6.15,17.51,5.75,17.51z M11.43,14.57
				c0.37,0,0.73,0,1.08,0c0.12,0,0.2-0.09,0.2-0.2c0-0.11-0.08-0.2-0.21-0.2c-0.29,0-0.58,0-0.87,0c-0.12,0-0.2,0.08-0.2,0.2
				C11.43,14.42,11.43,14.49,11.43,14.57z M7.47,15.63c-0.39-0.02-0.86,0.14-1.04,0.35c0.21,0,0.42,0.01,0.63,0
				C7.27,15.96,7.4,15.84,7.47,15.63z"/>
			<path class="st0" d="M12.69,17.63c0-0.57,0.46-1.03,1.03-1.03c0.57,0,1.03,0.47,1.02,1.04c0,0.56-0.46,1.02-1.03,1.02
				C13.16,18.66,12.69,18.2,12.69,17.63z M12.97,17.51c-0.07,0.29,0.07,0.6,0.34,0.77c0.28,0.17,0.62,0.16,0.88-0.04
				c0.23-0.17,0.36-0.55,0.28-0.73C13.97,17.51,13.47,17.51,12.97,17.51z M14.39,17.24c-0.2-0.28-0.44-0.41-0.75-0.37
				c-0.24,0.03-0.44,0.15-0.57,0.37C13.51,17.24,13.94,17.24,14.39,17.24z"/>
			<path class="st0" d="M9.66,18.06C9.65,18.58,9.21,19,8.69,18.99c-0.53-0.01-0.95-0.45-0.94-0.98c0.01-0.52,0.45-0.94,0.97-0.93
				C9.25,17.1,9.67,17.53,9.66,18.06z M8.01,18.03c0,0.38,0.31,0.7,0.69,0.7c0.38,0,0.7-0.3,0.7-0.69c0-0.38-0.31-0.7-0.69-0.7
				C8.33,17.34,8.01,17.65,8.01,18.03z"/>
		</g>
	</g>
	<circle class="st1" cx="12.13" cy="12" r="11.5"/>
</g>
</svg>
