<?xml version="1.0" encoding="utf-8"?>
<!-- Generator: Adobe Illustrator 25.0.0, SVG Export Plug-In . SVG Version: 6.00 Build 0)  -->
<svg version="1.1" id="Layer_1" xmlns="http://www.w3.org/2000/svg" xmlns:xlink="http://www.w3.org/1999/xlink" x="0px" y="0px"
	 viewBox="0 0 24 24" style="enable-background:new 0 0 24 24;" xml:space="preserve">
<style type="text/css">
	.st0{fill:none;stroke:#1D1D1B;stroke-miterlimit:10;}
	.st1{fill:#EDEDED;}
</style>
<g>
	<circle class="st0" cx="12.13" cy="12" r="11.5"/>
	<g>
		<path class="st1" d="M4.27,7.44C4.39,7.1,4.64,6.97,5,6.98C5.52,7,6.06,6.96,6.58,7.01C7.42,7.1,8.02,7.57,8.34,8.36
			c0.71,1.76,1.4,3.53,2.08,5.3c0.17,0.44,0.61,0.73,1.07,0.73c1.71-0.02,3.41-0.01,5.12-0.01c0.46,0,0.79-0.24,0.95-0.67
			c0.33-0.92,0.65-1.85,0.98-2.77c0.02-0.05,0.05-0.1,0.04-0.14c-0.01-0.04-0.05-0.1-0.09-0.12c-0.05-0.02-0.12-0.01-0.18-0.01
			c-2.41,0-4.82,0-7.23,0c-0.21,0-0.4-0.05-0.53-0.23c-0.25-0.32-0.09-0.79,0.3-0.89c0.08-0.02,0.17-0.03,0.25-0.03
			c2.42,0,4.84,0,7.26,0c0.36,0,0.69,0.07,0.96,0.32c0.41,0.38,0.5,0.85,0.32,1.36c-0.29,0.86-0.6,1.72-0.91,2.57
			c-0.1,0.28-0.2,0.57-0.37,0.82c-0.4,0.6-0.99,0.92-1.72,0.92c-1.75,0.01-3.5,0-5.25,0c-0.88,0-1.68-0.54-2-1.37
			c-0.7-1.78-1.41-3.56-2.1-5.34C7.14,8.42,6.71,8.1,6.28,8.13C5.85,8.15,5.42,8.12,5,8.13c-0.35,0.01-0.6-0.11-0.73-0.45
			C4.27,7.6,4.27,7.52,4.27,7.44z"/>
		<path class="st1" d="M9.85,16.22c0.69,0,1.27,0.57,1.27,1.26c0,0.69-0.57,1.27-1.26,1.27c-0.69,0-1.27-0.57-1.27-1.26
			C8.58,16.8,9.15,16.22,9.85,16.22z"/>
		<path class="st1" d="M16.73,17.48c0.01-0.7,0.57-1.26,1.27-1.26c0.7,0,1.27,0.59,1.26,1.27c-0.01,0.7-0.59,1.27-1.28,1.26
			C17.29,18.75,16.72,18.18,16.73,17.48z"/>
		<path class="st1" d="M14.19,12.04c-0.8,0-1.6,0-2.4,0c-0.06,0-0.12,0-0.18-0.01c-0.14-0.02-0.24-0.14-0.24-0.27
			c0-0.13,0.09-0.25,0.23-0.28c0.06-0.01,0.13-0.01,0.2-0.01c1.59,0,3.18,0,4.77,0c0.07,0,0.14,0,0.21,0.02
			c0.13,0.03,0.21,0.15,0.21,0.28c0,0.13-0.1,0.24-0.23,0.26c-0.06,0.01-0.13,0.01-0.2,0.01C15.77,12.04,14.98,12.04,14.19,12.04z"
			/>
		<path class="st1" d="M14.24,12.9c0.67,0,1.34,0,2.01,0c0.22,0,0.34,0.1,0.34,0.28c0,0.14-0.06,0.23-0.2,0.27
			c-0.07,0.02-0.14,0.02-0.21,0.02c-1.3,0-2.59,0-3.89,0c-0.06,0-0.12,0-0.18-0.01c-0.15-0.03-0.24-0.15-0.23-0.29
			c0.01-0.14,0.12-0.25,0.27-0.26c0.15-0.01,0.29,0,0.44,0C13.14,12.9,13.69,12.9,14.24,12.9z"/>
	</g>
</g>
</svg>
