<svg xmlns="http://www.w3.org/2000/svg" xmlns:xlink="http://www.w3.org/1999/xlink" viewBox="0 0 125.47 124.8"><defs><style>.cls-1{fill:none;}.cls-2{clip-path:url(#clip-path);}.cls-3{fill:#fff;}</style><clipPath id="clip-path" transform="translate(-0.34 -0.34)"><rect class="cls-1" width="125.81" height="125.14"/></clipPath></defs><g id="Layer_2" data-name="Layer 2"><g id="Layer_1-2" data-name="Layer 1"><g class="cls-2"><path class="cls-3" d="M63.07,38.11A12.14,12.14,0,1,0,50.93,26,12.15,12.15,0,0,0,63.07,38.11Zm0-20.23A8.1,8.1,0,1,1,55,26a8.1,8.1,0,0,1,8.09-8.09Z" transform="translate(-0.34 -0.34)"/><path class="cls-3" d="M115.25,46.21A55.12,55.12,0,0,0,81,10.81l1.49-3.74-6.1,1.22a10.47,10.47,0,0,1-10.35-4l-3-4-3,4a10.47,10.47,0,0,1-10.35,4l-6.1-1.22,1.49,3.74A54.45,54.45,0,0,0,11,45.83,18.34,18.34,0,0,0,.49,60,18.13,18.13,0,0,0,8.75,77.74a4,4,0,0,1,1.71,3.38v3.54a8.08,8.08,0,0,0,7.13,8,55.27,55.27,0,0,0,15.13,15.16v13.27H8.43v4H117.71v-4H89.38V110.27a54.63,54.63,0,0,0,20.39-19.54h12v-4h-4.05v-4h8.1V46.21Zm6.51,16.19h-8.09V50.26h8.09ZM101.52,78.59V66.45h8.1V78.59ZM89.38,66.45h8.1V78.59h-8.1Zm0-4.05V50.26h8.1V62.4Zm12.14,0V50.26h8.1V62.4Zm-51.78-50A14.51,14.51,0,0,0,63.07,7.07a14.54,14.54,0,0,0,13.34,5.32A14.34,14.34,0,0,0,81.63,26a14.47,14.47,0,0,0-5.5,13.3,14.35,14.35,0,0,0-13.06,5.62,14.54,14.54,0,0,0-11.34-5.46,14.79,14.79,0,0,0-2,.14A14.36,14.36,0,0,0,44.5,26a14.36,14.36,0,0,0,5.24-13.58ZM10.94,74.33a14.16,14.16,0,0,1,6-26,13.52,13.52,0,0,1,1.68-.1A14,14,0,0,1,28,51.83,14.15,14.15,0,0,1,26.2,74.31a7.9,7.9,0,0,0-3.58,6.3H20.57V68.1a6.07,6.07,0,1,0-4,0V80.61H14.47a7.93,7.93,0,0,0-3.53-6.28ZM16.53,62.4a2,2,0,1,1,2,2,2,2,0,0,1-2-2Zm-2,22.26h8.1a4,4,0,0,1-8.1,0Zm58.69,4V98L65.1,96.36v24.73H57V92.31l-4,.81V88.71ZM53,97.25v23.84H36.76v-20.6Zm16.19,23.84V101.3l16.19,3.23v16.56Zm20.24-15.48v-4.4L77.24,98.79V84.66h-4v-4h-4v4h-4V76.57h-4v8.09H57v-4H53v4h-4v9.27L32.72,97.17v5.68A51.25,51.25,0,0,1,22,92a8.09,8.09,0,0,0,4.64-7.29V81a3.93,3.93,0,0,1,1.74-3.31A18.21,18.21,0,0,0,16.44,44.31c-.23,0-.44.06-.66.1A50.43,50.43,0,0,1,45.85,14.83a10.35,10.35,0,0,1-5,8.78L36.88,26l3.94,2.37a10.34,10.34,0,0,1,4.3,12.77l-1.49,3.77,6.1-1.22a10.45,10.45,0,0,1,10.35,4l3,4,3.19-4.24a10.34,10.34,0,0,1,10-4l5.69.93L80.71,41A10.42,10.42,0,0,1,85.1,28.47L89.27,26l-3.94-2.36a10.35,10.35,0,0,1-5-8.78A51.12,51.12,0,0,1,111,46.21H85.33V82.64h8.1v4H89.38v4H105a50.66,50.66,0,0,1-15.62,14.88Zm24.29-18.93H97.48v-4h16.19Zm0-8.09V66.45h8.09V78.59Z" transform="translate(-0.34 -0.34)"/></g><rect class="cls-3" x="121.43" y="120.75" width="4.05" height="4.05"/><rect class="cls-3" y="120.75" width="4.05" height="4.05"/><rect class="cls-3" x="72.86" y="112.66" width="8.1" height="4.05"/><rect class="cls-3" x="40.48" y="104.56" width="8.1" height="4.05"/><rect class="cls-3" x="40.48" y="112.66" width="8.1" height="4.05"/><rect class="cls-3" x="48.57" y="55.99" width="28.33" height="4.05"/><rect class="cls-3" x="72.86" y="64.09" width="4.05" height="4.05"/><rect class="cls-3" x="56.67" y="64.09" width="4.05" height="4.05"/><rect class="cls-3" x="48.57" y="64.09" width="4.05" height="4.05"/><rect class="cls-3" x="64.76" y="64.09" width="4.05" height="4.05"/></g></g></svg>